<svg viewBox="0 0 18 18" fill="none" xmlns="http://www.w3.org/2000/svg">
<rect width="18" height="18" rx="9" fill="#26C2A3"/>
<path d="M7.69879 15.0022H5.72891C5.54819 15.0022 5.40361 14.8396 5.40361 14.6589V12.7613C5.40361 12.6167 5.4759 12.436 5.72891 12.436H7.69879C7.86144 12.436 8.06024 12.4902 8.06024 12.7613V14.6589C8.06024 14.8034 7.86144 15.0022 7.69879 15.0022ZM12.2892 15.0022H10.3193C10.1566 15.0022 9.95783 14.8034 9.95783 14.6589V12.7613C9.95783 12.4902 10.1566 12.436 10.3193 12.436H12.2892C12.5422 12.436 12.6145 12.6167 12.6145 12.7613V14.6589C12.6145 14.8396 12.4699 15.0022 12.2892 15.0022ZM7.60843 11.0444H5.81927C5.62048 11.0444 5.4759 10.936 5.4759 10.7191L5.33132 3.942C5.33132 3.77935 5.40361 3.6167 5.65662 3.6167H7.77108C7.96988 3.6167 8.11445 3.74321 8.11445 3.942L7.91566 10.7191C7.91566 10.8818 7.77108 11.0444 7.60843 11.0444ZM12.1807 11.0444H10.3916C10.2289 11.0444 10.0843 10.8818 10.0843 10.7191L9.88554 3.942C9.88554 3.74321 10.0301 3.6167 10.2289 3.6167H12.3434C12.5964 3.6167 12.6687 3.77935 12.6687 3.942L12.5241 10.7191C12.5241 10.936 12.3795 11.0444 12.1807 11.0444Z" fill="#10777C"/>
<path d="M7.69879 14.4397H5.72891C5.54819 14.4397 5.40361 14.2771 5.40361 14.0964V12.1988C5.40361 12.0542 5.4759 11.8735 5.72891 11.8735H7.69879C7.86144 11.8735 8.06024 11.9277 8.06024 12.1988V14.0964C8.06024 14.2409 7.86144 14.4397 7.69879 14.4397ZM12.2892 14.4397H10.3193C10.1566 14.4397 9.95783 14.2409 9.95783 14.0964V12.1988C9.95783 11.9277 10.1566 11.8735 10.3193 11.8735H12.2892C12.5422 11.8735 12.6145 12.0542 12.6145 12.1988V14.0964C12.6145 14.2771 12.4699 14.4397 12.2892 14.4397ZM7.60843 10.4819H5.81927C5.62048 10.4819 5.4759 10.3735 5.4759 10.1566L5.33132 3.3795C5.33132 3.21685 5.40361 3.0542 5.65662 3.0542H7.77108C7.96988 3.0542 8.11445 3.18071 8.11445 3.3795L7.91566 10.1566C7.91566 10.3193 7.77108 10.4819 7.60843 10.4819ZM12.1807 10.4819H10.3916C10.2289 10.4819 10.0843 10.3193 10.0843 10.1566L9.88554 3.3795C9.88554 3.18071 10.0301 3.0542 10.2289 3.0542H12.3434C12.5964 3.0542 12.6687 3.21685 12.6687 3.3795L12.5241 10.1566C12.5241 10.3735 12.3795 10.4819 12.1807 10.4819Z" fill="white"/>
</svg>
