<svg preserveAspectRatio="none" width="100%" height="100%" overflow="visible" style="display: block;" viewBox="0 0 20 20" fill="none" xmlns="http://www.w3.org/2000/svg">
<g id="classification-interesting">
<rect width="20" height="20" rx="10" fill="var(--fill-0, #E3AA24)"/>
<path id="Vector" d="M6.56624 16.2675C6.14456 16.5486 5.64255 16.1872 5.78311 15.7053L6.82729 11.7494L3.6546 9.17915C3.23291 8.83778 3.57427 8.27553 3.9558 8.23537L8.05219 8.01449L9.51805 4.19923C9.59837 3.99842 9.79917 3.85786 10.0201 3.85786C10.2209 3.85786 10.4217 3.97834 10.502 4.19923L11.9678 8.01449L16.0442 8.23537C16.5662 8.25545 16.6867 8.89802 16.3454 9.15907L13.1727 11.7494L14.2168 15.7053C14.3574 16.2073 13.7751 16.4884 13.4337 16.2675L9.99998 14.0587L6.56624 16.2675Z" fill="var(--fill-0, #CF8D1B)"/>
<path id="Vector_2" d="M6.56624 15.6425C6.14456 15.9236 5.64255 15.5622 5.78311 15.0803L6.82729 11.1244L3.6546 8.55415C3.23291 8.21278 3.57427 7.65053 3.9558 7.61037L8.05219 7.38949L9.51805 3.57423C9.59837 3.37342 9.79917 3.23286 10.0201 3.23286C10.2209 3.23286 10.4217 3.35334 10.502 3.57423L11.9678 7.38949L16.0442 7.61037C16.5662 7.63045 16.6867 8.27302 16.3454 8.53407L13.1727 11.1244L14.2168 15.0803C14.3574 15.5823 13.7751 15.8634 13.4337 15.6425L9.99998 13.4337L6.56624 15.6425Z" fill="var(--fill-0, white)"/>
</g>
</svg>
