<svg width="20" height="21" viewBox="0 0 20 21" fill="none" xmlns="http://www.w3.org/2000/svg">
<g filter="url(#filter0_d_8744_94255)">
<path d="M17.0752 0.290224C17.4118 -0.0750479 17.9811 -0.0987746 18.3467 0.23749C18.7121 0.574096 18.7357 1.14335 18.3994 1.50897L2.06152 19.1183C1.72486 19.4839 1.15566 19.5076 0.790039 19.1711C0.424896 18.8344 0.400924 18.2651 0.737305 17.8996L2.66406 15.8225H1.19141C0.333266 15.8224 0 15.4893 0 14.631V4.52265C6.99636e-05 3.6646 0.333356 3.33131 1.19141 3.33124H4.2168C6.7164 3.33126 7.82481 3.85609 8.5498 4.80585C8.99147 5.55585 9.1582 6.16477 9.1582 7.03144L9.16699 7.02265V8.81366L10.833 7.01776C10.8348 6.16654 11.0021 5.55186 11.4414 4.80585C11.9877 4.09637 12.752 3.61828 14.165 3.42597L17.0752 0.290224ZM9.16699 17.965C9.16669 18.1564 8.97456 18.239 8.83301 18.0725C8.24173 17.2967 7.64338 16.7816 7.00293 16.4406L9.16699 14.092V17.965ZM19.0664 3.34394C19.7281 3.41175 19.9911 3.75968 19.9912 4.52265V14.631C19.9912 15.4894 19.6581 15.8225 18.7998 15.8225H16.1338C14.0755 15.8225 12.6081 16.181 11.1582 18.0725C11.0166 18.239 10.8255 18.1564 10.8252 17.965L10.833 17.9728V12.2834L19.0664 3.34394Z" fill="#8F8F8F"/>
</g>
<defs>
<filter id="filter0_d_8744_94255" x="0" y="0" width="20" height="21" filterUnits="userSpaceOnUse" color-interpolation-filters="sRGB">
<feFlood flood-opacity="0" result="BackgroundImageFix"/>
<feColorMatrix in="SourceAlpha" type="matrix" values="0 0 0 0 0 0 0 0 0 0 0 0 0 0 0 0 0 0 127 0" result="hardAlpha"/>
<feOffset dy="1"/>
<feComposite in2="hardAlpha" operator="out"/>
<feColorMatrix type="matrix" values="0 0 0 0 0 0 0 0 0 0 0 0 0 0 0 0 0 0 0.2 0"/>
<feBlend mode="normal" in2="BackgroundImageFix" result="effect1_dropShadow_8744_94255"/>
<feBlend mode="normal" in="SourceGraphic" in2="effect1_dropShadow_8744_94255" result="shape"/>
</filter>
</defs>
</svg>
