<svg width="40" height="40" viewBox="0 0 40 40" fill="none" xmlns="http://www.w3.org/2000/svg">
<path d="M18.5179 18.7917L5.5229 30.2661C5.5229 30.2661 5.48457 30.3045 5.47179 30.3172C4.61568 31.1733 4.0279 32.2211 3.81068 33.2433C3.69568 33.7928 3.6829 34.3295 3.7979 34.815C3.9129 35.3772 4.18123 35.8756 4.56457 36.2461L5.42068 37.1022C5.43346 37.115 5.44623 37.1278 5.45901 37.1406C6.87734 38.4822 9.44568 38.0606 11.3496 36.1439C11.3623 36.1311 11.3879 36.1056 11.4007 36.0928L22.6451 23.2128C20.9457 22.4972 19.5273 21.1556 18.5307 18.7789L18.5179 18.7917Z" fill="#807B76"/>
<path d="M19.0159 19.8522L6.26368 31.1095C5.53535 31.8378 5.07535 32.6939 4.90924 33.4733C4.83257 33.8695 4.81979 34.24 4.88368 34.5722C4.96035 34.9045 5.1009 35.2111 5.34368 35.4411L6.19979 36.2972C7.14535 37.23 9.08757 36.8083 10.5315 35.3517L21.597 22.6761C20.6003 22.05 19.7315 21.1428 19.0159 19.8522Z" fill="#B3ACA8"/>
<path d="M6.27686 31.1222C5.54853 31.8506 5.08853 32.7067 4.92242 33.4861C4.84575 33.8822 4.83297 34.2528 4.89686 34.585C4.89686 34.585 4.89686 34.585 4.89686 34.5978C4.89686 34.3678 4.85853 34.1378 4.89686 33.895C5.06297 33.1156 5.52297 32.2595 6.25131 31.5311L19.1569 20.1206C19.1058 20.0311 19.0419 19.9417 18.9908 19.8522L6.23853 31.1095L6.27686 31.1222Z" fill="#E8E6E1"/>
<path d="M1.84272 8.56943L1.70216 8.70999C1.22938 9.18276 1.19105 10.0644 1.61272 10.7417L2.54549 12.1728C2.85216 12.9394 2.85216 13.7061 2.74994 14.8305C2.63494 16.0828 2.97994 16.8494 3.19716 17.3605L3.23549 17.4628C3.47827 18.0122 3.70827 18.4722 3.91272 18.8811C4.41105 19.865 4.79438 20.6444 5.07549 22.1394L5.89327 26.9566C6.04661 28.3494 7.18383 29.3589 8.49994 29.2567C9.84161 29.1544 12.0522 27.8639 12.6527 27.2633C12.7677 27.1483 12.9338 26.9567 12.9338 26.7139C12.9338 26.1772 12.8444 25.7044 12.7422 25.2444C12.5249 24.235 12.3588 23.4939 13.3811 22.4717C14.8761 20.9639 14.8122 18.3061 14.7866 17.0283V17.0028L14.7227 16.1978C15.3744 16.3511 16.3199 16.7089 16.8055 17.5905C17.0099 17.9611 17.1505 18.3572 17.2399 18.8044C17.4061 19.6733 17.3422 20.6444 17.2399 21.5644V21.6283C16.9844 23.9667 16.5755 27.8255 18.6455 30.6239C16.9844 33.5372 18.5816 35.1344 20.4216 36.9616L20.7027 37.2428L21.0477 37.5878L21.3927 37.2428L38.1572 20.4783L38.5022 20.1333L38.1572 19.7883L37.8761 19.5072C36.0488 17.6672 34.4516 16.07 31.5383 17.7311C31.3338 17.3861 31.0783 16.9389 30.8099 16.4405C29.6727 14.3961 28.1138 11.6105 26.6955 10.1794C23.3349 6.81887 19.4505 5.05554 15.4638 5.09387C12.1672 5.11943 8.93438 6.35887 6.32772 8.58221H2.04716H1.84272V8.56943Z" fill="#E8E6E1"/>
<path d="M26.0309 24.9889C33.4292 17.5905 35.0137 17.6417 35.0137 17.6417L35.1159 17.5394C33.0331 16.1211 28.9698 19.8011 28.9698 19.8011L20.8815 27.8894C20.8815 27.8894 17.0098 32.0422 18.5815 34.0739L18.6837 33.9717C18.6837 33.9717 18.6326 32.3872 26.0309 24.9889Z" fill="white"/>
<path d="M4.67922 12.5944C5.20311 10.3455 2.03422 9.05499 2.03422 9.05499C1.65089 9.43833 1.51033 10.0261 1.86811 10.6011L2.80089 12.045C3.14589 12.8628 3.14589 13.6678 3.03089 14.8433C2.91589 16.0189 3.23533 16.7344 3.46533 17.2455L3.50367 17.3478C3.74644 17.8844 3.96367 18.3317 4.16811 18.7533C4.66644 19.7628 5.06255 20.555 5.34367 22.0755L6.16144 26.8928C6.16144 26.8928 6.16144 26.995 6.16144 27.0461C6.187 28.3622 7.32422 28.5411 7.32422 28.5411C7.32422 28.5411 6.55755 21.245 6.417 20.2483C6.16144 18.4467 3.64422 16.9005 4.65367 12.5944H4.67922Z" fill="white"/>
<path d="M6.51966 14.0383C5.99577 15.3033 7.28633 17.0922 7.28633 17.0922C7.40133 15.4567 8.69189 15.9039 8.87077 14.345C9.02411 13.0417 7.04355 12.7989 6.51966 14.0383Z" fill="#666564"/>
<path d="M13.4577 12.6967C13.7516 13.6039 14.186 15.5972 14.186 15.5972C14.186 15.5972 14.3521 15.9295 14.5949 16.3767C14.5949 16.3767 14.9143 15.9806 16.1154 17.0539C16.4349 17.335 17.6104 18.2295 17.3549 17.6033C16.601 15.8017 15.4254 13.885 14.8888 13.3739C14.3521 12.8628 13.1638 11.8022 13.4577 12.7095V12.6967Z" fill="#B3ACA8"/>
<path d="M6.48096 9.05501C6.48096 9.05501 14.3648 2.92168 21.0732 9.63001C25.5582 14.115 23.8332 18.3572 26.0693 22.165C26.0693 22.165 29.4171 18.8683 31.5765 18.0889C31.5765 18.0889 28.8804 12.2495 26.3504 9.71946C23.7565 7.12557 13.9176 1.22223 6.48096 9.05501Z" fill="#B3ACA8"/>
<path d="M13.7005 21.4367C11.3622 22.2289 10.0589 21.7178 11.26 24.12C12.4227 26.4583 11.835 27.6339 12.6144 27.225C13.3939 26.8161 12.1416 24.0945 12.64 23.545C13.1255 22.9956 14.5694 21.13 13.7005 21.4367Z" fill="#B3ACA8"/>
<path d="M15.5532 5.56667C19.0032 5.56667 22.7599 6.94667 26.3249 10.5117C28.2415 12.4283 30.5287 17.1306 31.3593 18.3956C32.3176 17.7695 33.0971 17.5139 33.7999 17.5139C35.2949 17.5139 36.3682 18.7022 37.7993 20.1333L21.0349 36.8978C18.9776 34.8406 17.406 33.4989 19.2204 30.5856C17.0354 27.9022 17.4699 23.9156 17.7126 21.6156C17.8276 20.5422 17.866 19.5967 17.7126 18.715C17.6232 18.2295 17.4699 17.7822 17.2271 17.3478C16.4476 15.9422 14.761 15.6611 14.1987 15.61L14.301 17.0283C14.3393 18.3828 14.3649 20.785 13.036 22.1139C11.3237 23.8517 12.4865 25.1039 12.461 26.6883C12.461 27.0589 9.82874 28.6433 8.46152 28.7583C8.41041 28.7583 8.3593 28.7583 8.32097 28.7583C7.34985 28.7583 6.49374 27.9789 6.37874 26.88L5.56097 22.0372C5.15208 19.8395 4.50041 19.0983 3.69541 17.2583C3.46541 16.7472 3.12041 16.0572 3.23541 14.8689C3.35041 13.6678 3.35041 12.8245 2.97985 11.9428L2.02152 10.4861C1.74041 10.0261 1.72763 9.37445 2.04708 9.05501H6.48097C8.8193 7.01056 12.0265 5.5539 15.5532 5.5539M15.5532 4.58279C12.1543 4.58279 8.8193 5.82223 6.12319 8.07112H2.04708H1.65097L1.36985 8.35223C0.743743 8.97834 0.667077 10.1156 1.21652 10.9845L2.12374 12.3772C2.3793 13.0417 2.3793 13.7061 2.27708 14.7667C2.1493 16.1339 2.51985 16.99 2.76263 17.5395C3.04374 18.1911 3.27374 18.6511 3.49097 19.0728C3.9893 20.0567 4.34708 20.7722 4.60263 22.2033L5.42041 27.0206C5.57374 28.5283 6.82597 29.7167 8.32097 29.7167C8.39763 29.7167 8.4743 29.7167 8.55097 29.7167C9.63708 29.6272 13.4193 28.0556 13.4321 26.7011C13.4321 26.1133 13.3299 25.5894 13.2276 25.1167C13.0104 24.1583 12.8954 23.6345 13.7387 22.7911C15.3743 21.1428 15.3104 18.3445 15.2849 16.99V16.8495C15.6937 17.0283 16.1282 17.3222 16.3965 17.795C16.5754 18.1145 16.7032 18.4722 16.7671 18.8683C16.9204 19.6733 16.8565 20.6061 16.7671 21.4878C16.5115 23.89 16.1154 27.7106 18.0832 30.6239C16.4987 33.6906 18.326 35.5178 20.0893 37.2683L20.3704 37.5494L21.0604 38.2394L21.7504 37.5494L38.5149 20.785L39.2049 20.095L38.5149 19.405L38.2337 19.1239C36.8921 17.7695 35.6271 16.5045 33.8254 16.5045C33.161 16.5045 32.471 16.6833 31.7299 17.0411C31.5765 16.7856 31.4104 16.4789 31.2315 16.1595C30.0815 14.0895 28.5099 11.2656 27.0404 9.79612C23.616 6.37167 19.6549 4.57001 15.5915 4.57001L15.5532 4.58279Z" fill="#4A4743"/>
<path d="M24.9321 24.0178C26.951 21.9989 28.8421 20.2867 30.6055 18.9195C30.976 18.6256 31.3338 18.3956 31.6532 18.1911L31.091 17.3989C30.746 17.6033 30.3882 17.8589 30.0049 18.1528C28.2799 19.4945 26.3888 21.1939 24.2421 23.3406C22.0955 25.4872 20.396 27.3783 19.0543 29.1033C18.7477 29.4995 18.4921 29.8828 18.2749 30.2406L19.0927 30.7645C19.2843 30.4322 19.5271 30.0745 19.8338 29.6911C21.201 27.9278 22.9132 26.0367 24.9321 24.0178Z" fill="#4A4743"/>
<path d="M37.9785 8.26279C37.9785 8.26279 37.9913 8.28834 38.0041 8.30112C38.0041 8.30112 38.0296 8.3139 38.0424 8.32668L37.9785 8.26279Z" fill="#312E2B"/>
<path d="M32.6372 2.96001L32.65 2.97278L32.6628 2.98556L32.6372 2.96001Z" fill="#312E2B"/>
<path d="M27.8454 19.9928C28.7526 19.8906 29.6215 19.4689 30.2987 18.7789L37.9782 10.6139C38.617 9.97501 38.617 8.95278 38.0037 8.30112C37.697 8.00723 37.3009 7.84112 36.8665 7.84112C36.8154 7.84112 36.777 7.84112 36.7259 7.84112C36.7643 7.36834 36.5982 6.88278 36.2404 6.52501C35.9209 6.20556 35.512 6.03945 35.0648 6.03945C35.0137 6.03945 34.9754 6.03945 34.9243 6.03945C34.9243 5.98834 34.9243 5.95001 34.9243 5.89889C34.9243 5.45167 34.7454 5.04278 34.4259 4.72334C34.1065 4.40389 33.6976 4.23778 33.2504 4.23778C33.1993 4.23778 33.1609 4.23778 33.1098 4.23778C33.1482 3.77778 32.982 3.29223 32.637 2.93445C31.9854 2.29556 30.9376 2.30834 30.2987 2.94723L22.2359 10.7289C21.712 11.2528 21.3543 11.9172 21.1754 12.6967V12.7478C21.1243 12.85 21.0732 12.9906 21.0476 13.1695L20.3832 16.6961L19.1948 17.4117C20.1915 19.7883 21.6098 21.13 23.3093 21.8456L24.3443 20.6317L27.8582 19.9417L27.8454 19.9928Z" fill="#807B76"/>
<path d="M24.4722 19.4944L27.6794 18.8683C28.3311 18.8044 28.9827 18.485 29.4938 17.9867L37.25 9.89833C37.4544 9.69389 37.4544 9.34889 37.25 9.14444C37.0455 8.94 36.7005 8.94 36.4961 9.14444C36.0872 9.56611 35.4738 10.1794 35.41 10.2433C32.9311 12.735 29.3916 16.0189 29.0083 15.6356C28.625 15.2522 31.8577 11.7128 34.3366 9.23389L35.4611 8.10944C35.6655 7.905 35.6655 7.56 35.4611 7.35555C35.2566 7.15111 34.9116 7.15111 34.7072 7.35555C34.2855 7.77722 33.6466 8.42889 33.6211 8.45444C31.1422 10.9461 27.6027 14.23 27.2194 13.8467C26.8361 13.4633 30.1072 9.89833 32.5733 7.40666C32.6116 7.36833 33.2377 6.72944 33.6594 6.30777C33.8638 6.10333 33.8638 5.75833 33.6594 5.55389C33.455 5.34944 33.11 5.34944 32.9055 5.55389C32.4966 5.96277 31.8961 6.56333 31.8194 6.65277C29.3405 9.14444 25.8011 12.4283 25.4177 12.045C25.0344 11.6617 28.2672 8.12222 30.7461 5.64333L31.8705 4.50611C32.075 4.30166 32.075 3.96944 31.8705 3.765C31.6661 3.56055 31.3338 3.56055 31.1294 3.765L23.0794 11.5594C22.6705 11.9683 22.4277 12.4794 22.3127 13.0033C22.2872 13.1311 22.2233 13.2461 22.2105 13.3739L21.5844 16.6578L21.5588 16.7728L21.4566 17.3094L20.5366 17.7822C21.2522 19.0728 22.1211 19.98 23.1177 20.6061L23.7694 19.6094L24.4977 19.4689L24.4722 19.4944Z" fill="#B3ACA8"/>
<path d="M27.2961 13.8339C27.1939 14.0383 27.1428 14.1917 27.1939 14.2556C27.5772 14.6389 31.1294 11.355 33.5955 8.86334C33.6211 8.83779 34.26 8.18612 34.6817 7.76445C34.8861 7.56001 35.2311 7.56001 35.4355 7.76445C35.4867 7.81556 35.4739 7.87945 35.4994 7.93056C35.5889 7.7389 35.5889 7.5089 35.4228 7.34279C35.2183 7.13834 34.8733 7.13834 34.6689 7.34279C34.2472 7.76445 33.6083 8.41612 33.5828 8.44168C31.2189 10.8183 27.8967 13.8978 27.2833 13.8339H27.2961Z" fill="#E8E6E1"/>
<path d="M29.0979 15.6228C28.9956 15.8272 28.9445 15.9806 28.9956 16.0444C29.379 16.4278 32.9312 13.1439 35.3973 10.6522C35.4612 10.5883 36.0745 9.975 36.4834 9.55333C36.6879 9.34889 37.0201 9.34889 37.2373 9.55333C37.2884 9.60444 37.2756 9.66833 37.3012 9.71944C37.3906 9.52778 37.3906 9.29778 37.2245 9.13167C37.0201 8.92722 36.6751 8.92722 36.4706 9.13167C36.0617 9.55333 35.4484 10.1667 35.3845 10.2306C33.0206 12.6072 29.7112 15.6867 29.0851 15.6228H29.0979Z" fill="#E8E6E1"/>
<path d="M25.4943 12.045C25.3921 12.2494 25.341 12.4028 25.3921 12.4667C25.7755 12.85 29.3277 9.5661 31.7938 7.07443C31.8832 6.98499 32.4838 6.38443 32.8799 5.97554C33.0843 5.7711 33.4166 5.7711 33.6338 5.97554C33.6338 5.97554 33.6721 6.09054 33.6977 6.14165C33.7871 5.94999 33.7871 5.71999 33.621 5.55388C33.4166 5.34943 33.0716 5.34943 32.8671 5.55388C32.4582 5.96277 31.8577 6.56332 31.781 6.65277C29.4171 9.02943 26.0949 12.1089 25.4816 12.045H25.4943Z" fill="#E8E6E1"/>
<path d="M21.5208 17.2072L21.5463 17.0922L22.1724 13.8083C22.1724 13.6806 22.2491 13.5656 22.2746 13.4378C22.4024 12.9139 22.6324 12.4028 23.0413 11.9939L31.0913 4.19944C31.2958 3.995 31.628 3.995 31.8324 4.19944C31.8708 4.25056 31.8708 4.30167 31.8963 4.36556C31.9858 4.17389 31.9858 3.94389 31.8324 3.79056C31.628 3.58611 31.2958 3.58611 31.0913 3.79056L23.0413 11.585C22.6324 11.9939 22.3896 12.505 22.2746 13.0289C22.2491 13.1567 22.1852 13.2717 22.1724 13.3994L21.5463 16.6833L21.5208 16.7983L21.4185 17.335L20.4985 17.8078C20.5496 17.91 20.6135 17.9867 20.6646 18.0761L21.4185 17.7567L21.5208 17.22V17.2072Z" fill="#E8E6E1"/>
<path d="M24.306 19.52L24.4593 19.4945L27.6665 18.8683C27.6665 18.8683 27.6921 18.8683 27.7049 18.8683C27.3726 17.7567 26.6443 16.5428 25.571 15.4822C24.4976 14.4089 23.2838 13.6933 22.1593 13.3739V13.3995L21.5332 16.6833L21.5076 16.7983L21.4054 17.335L20.626 18.0378C22.0188 18.0378 23.271 18.4722 24.191 19.3795C24.2421 19.4306 24.2549 19.4817 24.306 19.5328V19.52Z" fill="#D1CCC5"/>
</svg>
