<svg width="32" height="38" viewBox="0 0 32 38" fill="none" xmlns="http://www.w3.org/2000/svg">
<path d="M8.31958 29.8446L5.75708 30.0154C5.58625 27.7433 0 25.1125 0 19.0821C0 12.3683 6.09875 9.1225 11.5654 10.7113L11.3433 12.0779H7.87542V3.87792H11.7533V0H19.9533V3.87792H23.8313V12.0779H20.295L20.1242 10.7625C25.8812 9.00292 31.6896 12.4196 31.6896 19.1333C31.6896 24.9929 26.0008 27.8458 25.8812 29.9471L23.3187 29.8275C23.4896 26.0692 29.1271 24.1387 29.1271 19.1162C29.1271 13.0858 22.9771 11.0358 18.0742 14.555L17.3396 9.48125H21.2688V6.40625H17.3908V2.52833H14.3158V6.40625H10.4379V9.48125H14.3671L13.5642 14.555C9.1225 11.1383 2.57958 13.0175 2.57958 19.0479C2.57958 24.2242 8.04625 25.9325 8.33667 29.8104L8.31958 29.8446ZM5.80833 34.1154V35.0208H25.8471V34.1154C25.8471 31.16 24.19 30.9208 15.8192 30.9208C7.44833 30.9208 5.79125 31.1429 5.79125 34.1154H5.80833ZM3.24583 37.5833V34.1154C3.24583 29.4517 5.58625 28.3583 15.8363 28.3583C26.0862 28.3583 28.4267 29.4346 28.4267 34.1154V37.5833H3.24583ZM21.0808 23.7458H18.2963V18.9625C21.1492 16.6221 23.985 17.5958 23.985 19.5946C23.985 20.91 22.3279 22.4987 21.0808 23.7458ZM13.3933 18.9112V23.7458H10.6087C9.36167 22.4987 7.75583 20.9612 7.75583 19.7654C7.75583 17.7667 10.6087 16.81 13.3933 18.9112Z" fill="#8B8987"/>
</svg>
