<svg width="80" height="80" viewBox="0 0 80 80" fill="none" xmlns="http://www.w3.org/2000/svg">
<g clip-path="url(#clip0_4760_30501)">
<g clip-path="url(#clip1_4760_30501)">
<g clip-path="url(#clip2_4760_30501)">
<mask id="mask0_4760_30501" style="mask-type:luminance" maskUnits="userSpaceOnUse" x="0" y="0" width="81" height="81">
<path d="M80.3672 0.413086H0.367188V80.4131H80.3672V0.413086Z" fill="white"/>
</mask>
<g mask="url(#mask0_4760_30501)">
<mask id="mask1_4760_30501" style="mask-type:luminance" maskUnits="userSpaceOnUse" x="0" y="1" width="81" height="81">
<path d="M80.3672 1.1088H0.367188V81.1088H80.3672V1.1088Z" fill="white"/>
</mask>
<g mask="url(#mask1_4760_30501)">
<path d="M53.9115 57.846C51.268 56.7886 49.7097 56.6982 49.7097 56.6982H29.7932C29.7932 56.6982 28.0332 57.2269 25.3897 58.2912C17.4593 61.4703 2.28711 69.4077 2.28711 82.1173H39.4141H40.0888H77.8975C77.8975 69.4077 61.8489 61.0251 53.9184 57.846H53.9115Z" fill="#878E91"/>
<path d="M48.7431 7.94688C48.7431 7.94688 39.9431 0.0721023 27.5188 9.92254C22.5101 14.1799 20.5275 16.8373 20.4162 20.6425C20.3049 24.4478 21.7727 28.8025 21.7727 28.8025L22.9066 30.8686L26.9623 40.4964H27.3101L39.4144 24.3782L48.7431 7.93993V7.94688Z" fill="#777673"/>
<path d="M54.7323 58.9035C52.0888 57.8461 50.3288 57.3104 50.3288 57.3104H30.4123C30.4123 57.3104 28.6523 57.8391 26.0088 58.9035C18.0784 62.0826 2.23145 70.0269 2.23145 82.7365H78.5167C78.5167 70.0269 62.6628 62.0826 54.7393 58.9035H54.7323Z" fill="#4D5759"/>
<path d="M36.4025 9.02516C36.4025 9.02516 41.119 3.35559 49.9329 8.25298C55.5538 11.1121 57.2859 13.1434 57.6199 16.2739C59.9155 18.6599 60.152 19.6547 60.2216 21.9643C60.3329 25.7695 58.3712 29.9086 58.3712 29.9086L58.0164 30.9382L55.7694 41.2965H55.4146L41.6477 24.6982L36.3955 9.02516H36.4025Z" fill="#777673"/>
<path d="M52.2975 59.5225L51.5601 41.5886H29.174L28.3184 59.5225L40.3671 74.3121L52.2975 59.5225Z" fill="#DEA984"/>
<path d="M57.0697 30.2633C57.0697 30.2633 59.268 27.8007 59.6784 30.0824C60.2697 33.3102 59.2263 39.4737 58.2037 40.4754C57.3897 41.2685 56.9584 41.6093 55.7897 39.6685H54.3984V30.7989L57.0697 30.2633Z" fill="#FBCDAA"/>
<path d="M56.8471 29.4703C56.8471 29.4703 58.7184 27.0912 59.4558 29.2894C60.1932 31.4877 59.0036 38.6807 57.981 39.6825C57.1671 40.4755 56.7358 40.8164 55.5671 38.8755H54.1758V30.006L56.8471 29.4703Z" fill="#DEA984"/>
<path d="M57.9744 30.5346C57.9744 30.5346 58.9901 29.5607 58.8162 31.5502C58.6422 33.5398 58.8162 36.0928 57.9744 36.6215C57.4527 36.9485 56.8683 38.7363 57.0492 37.1085C57.237 35.3485 58.2875 34.8128 57.6196 34.152C56.9518 33.4911 57.9744 30.5346 57.9744 30.5346Z" fill="#CD8A6D"/>
<path d="M23.6229 29.5121C23.6229 29.5121 21.7516 27.1329 21.0142 29.3312C20.2768 31.5295 21.3063 38.5208 22.8507 40.1486C23.6368 40.9764 23.7342 40.8512 24.8959 38.9103H26.2872V30.0408L23.6159 29.5051L23.6229 29.5121Z" fill="#FBCDAA"/>
<path d="M24.1934 30.2633C24.1934 30.2633 22.3221 27.8841 21.5847 30.0824C20.8473 32.2807 22.0369 39.4737 23.0595 40.4754C23.8734 41.2685 24.3047 41.6094 25.4734 39.6685H26.8647V30.7989L24.1934 30.2633Z" fill="#DEA984"/>
<path d="M22.6626 30.5346C22.6626 30.5346 21.6469 29.5607 21.8208 31.5502C21.9947 33.5398 21.8208 36.0928 22.6626 36.6215C23.1843 36.9485 23.7686 38.7363 23.5878 37.1085C23.3999 35.3485 22.3495 34.8128 23.0173 34.152C23.6852 33.4911 22.6626 30.5346 22.6626 30.5346Z" fill="#CD8A6D"/>
<path d="M49.1808 7.50167C49.1808 7.50167 41.0347 -0.0878923 28.6104 9.76254C23.6017 14.0199 21.0834 16.886 20.9721 20.6982C20.8608 24.5104 21.619 28.3295 21.619 28.3295L23.3443 30.4304L24.5895 40.2808L24.9373 40.7747L39.8521 23.9399L49.1808 7.50167Z" fill="#413E3B"/>
<path d="M35.6504 8.26684C35.6504 8.26684 40.3669 2.59728 49.1808 7.49467C54.8017 10.3538 56.6313 12.9625 56.9652 16.0999C59.08 18.7712 59.5252 19.126 59.5947 21.4355C59.706 25.2408 59.0034 28.079 59.0034 28.079L57.2713 30.1799L56.2626 40.2738H55.9078L40.9026 23.9399L35.6504 8.26684Z" fill="#413E3B"/>
<path d="M45.0837 7.36258C43.8315 4.05128 32.0263 7.72432 30.7672 11.3904C30.6072 11.8565 30.3637 12.3295 30.0576 12.8095C30.0715 12.8095 30.0854 12.8235 30.0924 12.8235C34.4054 7.76606 43.3307 7.95388 41.2507 10.6321C39.0733 13.4356 36.1446 13.5469 37.9394 16.0652C39.7272 18.5835 41.2507 14.7713 41.2507 14.7713C41.2507 14.7713 46.3359 10.6739 45.0837 7.36258Z" fill="#585551"/>
<path d="M55.5047 29.9503C55.2473 28.8651 54.9134 27.439 54.7047 26.5695C54.5795 26.0408 54.336 25.5538 53.9951 25.1364C53.7169 24.8025 53.376 24.3921 53.0699 24.0234C52.576 23.4321 52.3047 22.6947 52.2908 21.9225C52.2769 21.2269 52.249 20.3643 52.1516 19.7869C51.4143 17.4356 49.9534 14.2564 40.3673 13.9225C30.7812 14.2564 29.3203 17.4286 28.5829 19.7869C28.4856 20.3643 28.4508 21.2269 28.4438 21.9225C28.4299 22.6947 28.1586 23.4321 27.6647 24.0234C27.3586 24.3921 27.0177 24.8025 26.7395 25.1364C26.3916 25.5538 26.1551 26.0477 26.0299 26.5695C25.8212 27.439 25.4873 28.8651 25.2299 29.9503C25.0003 30.9382 24.8612 31.9399 24.8125 32.9556C24.6108 37.1364 24.3951 47.9469 28.5134 51.766C28.5134 51.766 34.5586 57.4703 40.3673 57.5121C46.1829 57.4703 52.2212 51.766 52.2212 51.766C56.3395 47.9538 56.1238 37.1364 55.9221 32.9556C55.8734 31.9399 55.7343 30.9382 55.5047 29.9503Z" fill="#FBCDAA"/>
<path d="M56.026 36.9417C56.026 36.9417 53.7234 47.4948 50.0295 42.5765C50.0295 42.5765 46.5095 51.9678 40.3391 51.9678C34.1686 51.9678 30.6278 42.5695 30.6278 42.5695C26.9338 47.4878 24.6312 36.9348 24.6312 36.9348C24.5895 48.7052 27.9843 49.5817 27.9843 49.5817C27.9843 49.5817 31.2399 55.0287 40.2765 55.0565V55.0704C40.2765 55.0704 40.3043 55.0704 40.3182 55.0704C49.4173 55.0704 52.6869 49.5887 52.6869 49.5887C52.6869 49.5887 56.0817 48.7121 56.0399 36.9417H56.026Z" fill="#907A6B"/>
<path d="M49.2643 41.5329C48.2069 40.3573 47.5182 38.8825 47.1077 38.0894C46.7251 37.352 46.0782 36.7677 45.2921 36.4268L44.6173 36.1346H40.2069V36.1486H36.0747L35.3999 36.4407C34.6069 36.7886 33.9669 37.3659 33.5843 38.1033C33.1738 38.8894 32.4851 40.3712 31.4277 41.5468C31.7756 43.0146 35.873 43.6338 40.2069 43.919C40.2069 43.919 40.2277 43.919 40.2416 43.919C40.3251 43.919 40.4086 43.9329 40.4921 43.9329V43.9051C44.826 43.6199 48.9164 43.0007 49.2712 41.5329H49.2643Z" fill="#EBAB91"/>
<path d="M28.0335 41.4426C28.0961 44.8513 28.8196 48.1 30.3083 51.1539C28.0474 48.566 27.1987 44.7608 28.0335 41.4426Z" fill="#79665A"/>
<path d="M52.6947 41.4427C53.5225 44.7609 52.6808 48.5661 50.4199 51.154C51.9156 48.107 52.6391 44.8514 52.6947 41.4427Z" fill="#79665A"/>
<path d="M28.5416 54.5834L26.246 54.806L22.879 59.3486C22.879 59.3486 22.6634 63.4112 23.0877 70.4999C29.5781 68.0442 36.5347 69.7903 36.5347 69.7903L28.0964 60.9834L28.5347 54.5834H28.5416Z" fill="#878E91"/>
<path d="M37.0216 28.1C40.7086 31.3696 37.4877 35.7661 37.4877 35.7661C37.4877 35.7661 28.2912 35.0913 27.8042 32.9974C27.519 31.7591 28.0408 30.2496 28.3399 28.7678C28.479 28.6635 31.999 25.4635 37.0147 28.1H37.0216Z" fill="url(#paint0_radial_4760_30501)"/>
<path d="M48.0544 51.0774C47.8597 52.5035 47.0944 54.9591 44.117 54.9591C40.3953 54.9591 40.3188 54.9591 36.597 54.9591C33.6197 54.9591 32.8544 52.5035 32.6596 51.0774H28.7153L28.5762 54.4235C29.2997 55.46 34.9275 63.2931 40.3605 63.3557C45.6336 63.2931 51.1014 55.8983 52.0683 54.5278L51.9501 51.0774H48.0614H48.0544Z" fill="#CD8A6D"/>
<path d="M56.0197 39.2233C55.171 45.5051 53.7936 47.272 52.771 47.6616C51.3241 48.2181 50.3432 48.5868 50.4267 45.0042C50.5102 41.4146 49.0215 41.1364 46.8093 40.5659C44.5971 39.9955 43.9571 37.519 43.9571 37.519H36.7641C36.7641 37.519 36.1241 39.9955 33.9119 40.5659C31.6997 41.1364 30.2041 41.4146 30.2945 45.0042C30.378 48.5938 29.3971 48.2181 27.9502 47.6616C26.4893 47.4112 25.1536 43.7938 24.7432 39.2999H24.3467C24.7015 43.2303 25.5362 47.7033 27.4075 50.472C27.6023 50.7642 27.7971 51.0564 27.9919 51.3555C28.1519 51.6059 28.3258 51.8355 28.5067 52.0512C28.5067 52.0512 34.5519 59.4668 40.3606 59.5225C46.1762 59.4668 52.2145 52.0512 52.2145 52.0512C52.3884 51.8425 52.5484 51.6198 52.7084 51.3833C52.9032 51.0912 53.091 50.799 53.2858 50.5138C55.1849 47.7312 56.0197 43.1955 56.3745 39.2233H56.0058H56.0197ZM44.1241 52.5868C44.1241 52.5868 36.611 52.5868 36.6041 52.5868C32.4093 52.5868 32.6041 48.559 32.6041 48.559L32.4093 43.7172C36.3745 43.8007 44.3536 43.8007 48.3189 43.7172L48.1241 48.559C48.1241 48.559 48.3189 52.5868 44.1241 52.5868Z" fill="#585551"/>
<path d="M41.6193 39.1469H39.1149L38.7949 41.4425L40.3671 42.4582L41.9393 41.4425L41.6193 39.1469Z" fill="#413E3B"/>
<path d="M42.7464 36.0235C42.5307 35.5365 42.0925 33.3383 42.1759 31.947H38.5933C38.6559 33.2826 38.2386 35.5574 38.0299 36.0165C36.9516 36.0374 36.082 36.7331 36.082 37.5887C36.082 38.4444 36.5412 39.1609 37.6403 39.1609C37.6403 39.1609 39.1707 39.5644 40.3603 39.5644C41.5499 39.5644 43.0803 39.1609 43.0803 39.1609C44.1794 39.1609 44.6107 38.4583 44.6107 37.5887C44.6107 36.7191 43.7829 36.0791 42.7464 36.0235Z" fill="#FBCDAA"/>
<path opacity="0.31" d="M41.0488 35.1121V32.0443H39.6854V35.1121C39.1567 35.3556 38.7949 35.8773 38.7949 36.4826C38.7949 37.3243 39.4975 38.006 40.3671 38.006C41.2367 38.006 41.9393 37.3243 41.9393 36.4826C41.9393 35.8773 41.5775 35.3556 41.0488 35.1121Z" fill="url(#paint1_linear_4760_30501)"/>
<path d="M37.919 36.1417C37.3138 36.2252 36.7433 36.58 36.5138 37.1365C36.3677 37.4774 36.3885 37.8809 36.5555 38.2009C36.5972 38.2844 36.6598 38.3678 36.7155 38.4444C36.7572 38.493 36.8129 38.5487 36.8616 38.5904C37.0494 38.7574 37.2859 38.8687 37.5294 38.9313C37.6407 38.9522 37.752 38.9731 37.8633 38.9731C37.9051 38.9731 38.2946 38.9731 38.3503 38.9731C38.6216 38.9731 38.8859 38.9661 39.1572 38.9591H39.2477C39.5885 39.1609 39.9851 39.2791 40.3816 39.2791C40.7503 39.2791 41.112 39.1817 41.432 39.0078L41.5155 38.9591H41.6059C41.9329 38.9591 42.2668 38.973 42.6007 38.98C42.7746 38.98 42.9555 38.987 43.1224 38.9522C43.5607 38.8757 43.9642 38.6044 44.1729 38.2217C44.5207 37.5539 44.2285 36.8165 43.6024 36.427C43.3868 36.2948 43.1433 36.1974 42.879 36.1557C43.1433 36.1417 43.4216 36.1835 43.679 36.2878C44.2077 36.4965 44.6251 36.9835 44.7155 37.547C44.8685 38.4652 44.1659 39.3209 43.2546 39.5296C43.039 39.5852 42.8164 39.5991 42.5938 39.5991C42.2668 39.6061 41.9329 39.613 41.599 39.613L41.7729 39.5644C41.5642 39.6896 41.3416 39.787 41.1051 39.8496C40.3955 40.0444 39.6094 39.94 38.9833 39.5644L39.1572 39.613C38.7677 39.613 38.3364 39.5991 37.9468 39.5922C36.959 39.5713 36.0198 38.8409 35.999 37.8391C35.9642 36.8165 36.9172 36.0444 37.9259 36.1417H37.919Z" fill="#BC7B61"/>
<path d="M45.5155 45.9644C45.5155 45.9644 42.9833 44.4479 40.312 44.4479C37.6407 44.4479 35.2129 45.9644 35.2129 45.9644C35.2129 45.9644 37.0564 51.1471 40.3259 51.1471C43.5955 51.1471 45.5155 45.9644 45.5155 45.9644Z" fill="#585551"/>
<path d="M48.3257 43.7244C48.3257 43.7244 44.4092 41.9505 40.2909 41.9505C36.1727 41.9505 32.4092 43.7244 32.4092 43.7244C32.4092 43.7244 35.2544 49.4496 40.3048 49.4496C45.3553 49.4496 48.3257 43.7244 48.3257 43.7244Z" fill="#FBCDAA"/>
<path d="M32.6388 43.634C32.7849 43.5644 36.2631 41.8948 38.4892 41.4844L38.7118 41.4427L40.3605 41.8253L42.0092 41.4427L42.2318 41.4844C44.4649 41.8948 47.9362 43.5644 48.0823 43.634H32.6318H32.6388Z" fill="#FBCDAA"/>
<path d="M47.484 43.7592C47.484 43.7592 43.9849 42.4583 40.2979 42.4583C36.611 42.4583 33.251 43.7592 33.251 43.7592C33.251 43.7592 35.9431 48.6913 40.3118 48.6913C44.6805 48.6913 47.484 43.7592 47.484 43.7592Z" fill="#F1AD9A"/>
<path d="M47.1917 43.7732C47.1917 43.7732 42.8578 42.2288 41.4247 42.4862L40.3673 42.5905L39.3099 42.4862C37.8769 42.2288 33.543 43.7732 33.543 43.7732C34.5447 44.8792 36.7638 46.1801 38.3986 46.521C39.6647 46.7784 40.9725 46.7853 42.2386 46.5279C43.9012 46.194 46.1899 44.8932 47.1986 43.7732H47.1917Z" fill="white"/>
<path d="M40.3672 43.2861C40.7289 43.314 44.708 43.0566 47.3515 43.7105C47.3515 43.7105 44.0124 42.2983 41.9741 41.9714L40.3672 42.2983L38.7602 41.9714C36.7219 42.3053 33.3828 43.7105 33.3828 43.7105C36.0263 43.0566 40.0054 43.307 40.3672 43.2861Z" fill="#E89C84"/>
<path d="M43.6722 28.1C39.9852 31.3695 43.2061 35.7661 43.2061 35.7661C43.2061 35.7661 52.4026 35.0913 52.8896 32.9974C53.1748 31.7591 52.6531 30.2495 52.3539 28.7678C52.2148 28.6635 48.6948 25.4635 43.6791 28.1H43.6722Z" fill="url(#paint2_radial_4760_30501)"/>
<path d="M37.0216 28.1C40.7086 31.3696 37.4877 35.7661 37.4877 35.7661C37.4877 35.7661 28.2912 35.0913 27.8042 32.9974C27.519 31.7591 28.0408 30.2496 28.3399 28.7678C28.479 28.6635 31.999 25.4635 37.0147 28.1H37.0216Z" fill="url(#paint3_radial_4760_30501)"/>
<path d="M52.1026 54.5834L54.5304 54.806L57.7513 59.439C57.7513 59.439 56.9373 64.1764 56.513 71.2651C50.0226 68.8094 44.2139 70.2773 44.2139 70.2773L52.4991 60.2321L52.1026 54.5834Z" fill="#878E91"/>
<path d="M30.1758 31.1119C30.1758 31.1119 33.7862 27.3762 36.5827 31.091L30.1758 31.1119Z" fill="white"/>
<mask id="mask2_4760_30501" style="mask-type:luminance" maskUnits="userSpaceOnUse" x="30" y="29" width="7" height="3">
<path d="M30.1758 31.1118C30.1758 30.4718 34.3149 28.2526 36.5827 31.0979L30.1758 31.1118Z" fill="white"/>
</mask>
<g mask="url(#mask2_4760_30501)">
<path d="M33.6954 31.6405C34.4446 31.6405 35.0519 31.0986 35.0519 30.4301C35.0519 29.7616 34.4446 29.2196 33.6954 29.2196C32.9462 29.2196 32.3389 29.7616 32.3389 30.4301C32.3389 31.0986 32.9462 31.6405 33.6954 31.6405Z" fill="url(#paint4_linear_4760_30501)"/>
</g>
<path d="M36.8956 31.9467C36.7356 30.0545 35.2677 29.4215 33.6608 29.4493C32.499 29.4702 31.1982 29.7485 30.5443 30.5763C30.1477 30.938 29.8208 31.1328 29.2851 31.3832L29.1182 31.4667C29.5425 31.4458 30.3425 31.2302 30.7529 31.1815C32.2556 29.2545 35.8382 29.3102 36.8886 31.9467H36.8956Z" fill="#7A5545"/>
<path d="M28.506 29.1504C29.2573 27.2721 30.3355 26.3887 31.3582 25.9504L31.0869 26.7504C31.0869 26.7504 32.0538 25.686 32.0538 25.7C32.1373 25.6791 32.2208 25.6582 32.3042 25.6374C33.5286 25.4704 36.4295 25.9365 37.0555 26.653L37.3616 27.0565L37.8277 28.6356L37.9321 27.5713L38.1895 27.8078C38.3355 28.1765 38.7112 28.6495 38.8295 29.2965C38.4955 29.4634 38.2451 29.4147 38.2451 29.4147C38.2451 29.4147 35.4973 26.9452 31.7755 27.8704C30.7808 28.1208 29.7651 28.6982 28.7982 29.4147C28.6312 29.54 28.4155 29.3521 28.499 29.1574L28.506 29.1504Z" fill="#484542"/>
<path d="M50.5515 31.112C50.5515 31.112 46.9411 27.8147 44.1445 31.0912L50.5515 31.112Z" fill="white"/>
<mask id="mask3_4760_30501" style="mask-type:luminance" maskUnits="userSpaceOnUse" x="44" y="29" width="7" height="3">
<path d="M50.5515 31.1121C50.5515 30.3886 46.4124 27.8773 44.1445 31.0912L50.5515 31.1121Z" fill="white"/>
</mask>
<g mask="url(#mask3_4760_30501)">
<path d="M47.0382 31.6407C47.7873 31.6407 48.3947 31.0988 48.3947 30.4303C48.3947 29.7618 47.7873 29.2198 47.0382 29.2198C46.289 29.2198 45.6816 29.7618 45.6816 30.4303C45.6816 31.0988 46.289 31.6407 47.0382 31.6407Z" fill="url(#paint5_linear_4760_30501)"/>
</g>
<path d="M43.8311 31.9468C43.9911 30.0547 45.4589 29.4216 47.0658 29.4495C48.2276 29.4703 49.5284 29.7486 50.1824 30.5764C50.5789 30.9381 50.9058 31.1329 51.4415 31.3834L51.6084 31.4668C51.1841 31.446 50.3841 31.2303 49.9737 31.1816C48.4711 29.2547 44.8884 29.3103 43.838 31.9468H43.8311Z" fill="#7A5545"/>
<path d="M52.2211 29.1504C51.4698 27.2721 50.3915 26.3887 49.3689 25.9504L49.6402 26.7504C49.6402 26.7504 48.6732 25.686 48.6732 25.7C48.5898 25.6791 48.5063 25.6582 48.4228 25.6374C47.1985 25.4704 44.2976 25.9365 43.6715 26.653L43.3654 27.0565L42.8993 28.6356L42.795 27.5713C42.2037 27.7521 41.8906 28.7956 41.8906 28.7956L42.475 29.4147C42.475 29.4147 45.2228 26.9452 48.9445 27.8704C49.9393 28.1208 50.955 28.6982 51.9219 29.4147C52.0889 29.54 52.3045 29.3521 52.2211 29.1574V29.1504Z" fill="#484542"/>
<path d="M48.2143 30.9104C48.4141 30.9104 48.576 30.7485 48.576 30.5487C48.576 30.3489 48.4141 30.187 48.2143 30.187C48.0145 30.187 47.8525 30.3489 47.8525 30.5487C47.8525 30.7485 48.0145 30.9104 48.2143 30.9104Z" fill="white"/>
<path d="M34.934 30.9104C35.1338 30.9104 35.2957 30.7485 35.2957 30.5487C35.2957 30.3489 35.1338 30.187 34.934 30.187C34.7342 30.187 34.5723 30.3489 34.5723 30.5487C34.5723 30.7485 34.7342 30.9104 34.934 30.9104Z" fill="white"/>
<path d="M52.0893 54.5764L53.731 55.0773L57.2928 59.9607C57.2928 59.9607 57.3345 64.0233 56.9101 71.112C50.4197 68.6564 43.7275 70.4025 43.7275 70.4025L52.298 59.5225L52.0893 54.5764Z" fill="#7A8183"/>
<path d="M28.5555 54.5764L26.6842 55.1329L23.4982 59.9607C23.4982 59.9607 23.2825 64.0233 23.7068 71.112C30.1973 68.6564 37.1538 70.4025 37.1538 70.4025L28.319 59.5225L28.5555 54.5764Z" fill="#7A8183"/>
<mask id="mask4_4760_30501" style="mask-type:luminance" maskUnits="userSpaceOnUse" x="2" y="54" width="77" height="29">
<path d="M57.2924 59.9886V59.9677L53.7307 55.0842L52.0959 54.6807L52.2977 59.5294L40.402 74.319L28.3185 59.5294L28.555 54.5834L26.8507 55.1399L23.4977 59.9677C15.1498 63.6686 2.22461 71.2651 2.22461 82.7364H78.5098C78.5098 71.286 65.6333 63.7034 57.2924 59.9886Z" fill="white"/>
</mask>
<g mask="url(#mask4_4760_30501)">
<path d="M39.1319 46.1233L37.0018 45.5526C34.9756 45.0097 32.8929 46.2121 32.3499 48.2384L30.7439 54.2321C30.201 56.2584 31.4034 58.3411 33.4297 58.884L35.5598 59.4548C37.586 59.9977 39.6687 58.7953 40.2117 56.769L41.8177 50.7752C42.3606 48.749 41.1582 46.6663 39.1319 46.1233Z" fill="#FA742C"/>
<mask id="mask5_4760_30501" style="mask-type:luminance" maskUnits="userSpaceOnUse" x="30" y="45" width="12" height="15">
<path d="M39.1319 46.1234L37.0018 45.5526C34.9756 45.0097 32.8929 46.2122 32.3499 48.2384L30.7439 54.2322C30.201 56.2584 31.4034 58.3412 33.4297 58.8841L35.5598 59.4548C37.586 59.9978 39.6687 58.7953 40.2117 56.7691L41.8177 50.7753C42.3606 48.749 41.1582 46.6663 39.1319 46.1234Z" fill="white"/>
</mask>
<g mask="url(#mask5_4760_30501)">
<path d="M41.2424 51.8215L39.3809 52.8963L40.4556 54.7579L42.3172 53.6831L41.2424 51.8215Z" fill="#F7C631"/>
<path d="M33.304 51.9163L31.4424 52.9911L32.5172 54.8526L34.3787 53.7779L33.304 51.9163Z" fill="#FCE26A"/>
<path d="M36.2512 52.7014L34.3896 53.7762L35.4644 55.6378L37.326 54.563L36.2512 52.7014Z" fill="#F7C631"/>
<path d="M39.2083 53.4959L37.3467 54.5707L38.4215 56.4323L40.283 55.3575L39.2083 53.4959Z" fill="#F7C631"/>
<path d="M42.1653 54.2836L40.3037 55.3584L41.3785 57.22L43.2401 56.1452L42.1653 54.2836Z" fill="#F7C631"/>
<path d="M31.2639 53.5943L29.4023 54.6691L30.4771 56.5306L32.3387 55.4558L31.2639 53.5943Z" fill="#E3AA24"/>
<path d="M34.221 54.382L32.3594 55.4568L33.4342 57.3183L35.2957 56.2435L34.221 54.382Z" fill="#E3AA24"/>
<path d="M37.178 55.1765L35.3164 56.2513L36.3912 58.1128L38.2528 57.038L37.178 55.1765Z" fill="#FCE26A"/>
<path d="M40.1292 55.9747L38.2676 57.0495L39.3424 58.9111L41.2039 57.8363L40.1292 55.9747Z" fill="#E3AA24"/>
<path d="M32.1907 56.0695L30.3291 57.1443L31.4039 59.0058L33.2655 57.9311L32.1907 56.0695Z" fill="#CF8D1B"/>
<path d="M35.1379 56.8545L33.2764 57.9292L34.3512 59.7908L36.2127 58.716L35.1379 56.8545Z" fill="#CF8D1B"/>
<path d="M38.095 57.6491L36.2334 58.7239L37.3082 60.5855L39.1698 59.5107L38.095 57.6491Z" fill="#CF8D1B"/>
<path d="M41.052 58.4368L39.1904 59.5116L40.2652 61.3732L42.1268 60.2984L41.052 58.4368Z" fill="#CF8D1B"/>
</g>
<path d="M61.2599 52.0587L59.1298 51.4879C57.1035 50.945 55.0208 52.1475 54.4779 54.1737L52.8718 60.1675C52.3289 62.1937 53.5314 64.2765 55.5576 64.8194L57.6877 65.3901C59.7139 65.9331 61.7967 64.7306 62.3396 62.7044L63.9456 56.7106C64.4886 54.6843 63.2861 52.6016 61.2599 52.0587Z" fill="#FA742C"/>
<mask id="mask6_4760_30501" style="mask-type:luminance" maskUnits="userSpaceOnUse" x="52" y="51" width="13" height="15">
<path d="M61.2599 52.0587L59.1298 51.4879C57.1035 50.945 55.0208 52.1474 54.4779 54.1737L52.8718 60.1675C52.3289 62.1937 53.5314 64.2764 55.5576 64.8194L57.6877 65.3901C59.7139 65.933 61.7967 64.7306 62.3396 62.7043L63.9456 56.7106C64.4886 54.6843 63.2861 52.6016 61.2599 52.0587Z" fill="white"/>
</mask>
<g mask="url(#mask6_4760_30501)">
<path d="M58.5725 52.0106L56.7109 53.0854L57.7857 54.947L59.6473 53.8722L58.5725 52.0106Z" fill="#F7C631"/>
<path d="M61.5256 52.7993L59.6641 53.8741L60.7388 55.7357L62.6004 54.6609L61.5256 52.7993Z" fill="#D6691B"/>
<path d="M64.4827 53.5938L62.6211 54.6686L63.6959 56.5302L65.5575 55.4554L64.4827 53.5938Z" fill="#D6691B"/>
<path d="M56.5452 53.6921L54.6836 54.7669L55.7584 56.6285L57.62 55.5537L56.5452 53.6921Z" fill="#E3AA24"/>
<path d="M59.5022 54.4798L57.6406 55.5546L58.7154 57.4162L60.577 56.3414L59.5022 54.4798Z" fill="#E3AA24"/>
<path d="M62.4534 55.2779L60.5918 56.3527L61.6666 58.2143L63.5282 57.1395L62.4534 55.2779Z" fill="#E3AA24"/>
<path d="M65.4104 56.0656L63.5488 57.1404L64.6236 59.002L66.4852 57.9272L65.4104 56.0656Z" fill="#E3AA24"/>
<path d="M54.5149 55.3727L52.6533 56.4475L53.7281 58.309L55.5897 57.2343L54.5149 55.3727Z" fill="#F7C631"/>
<path d="M57.4661 56.1638L55.6045 57.2386L56.6793 59.1001L58.5409 58.0254L57.4661 56.1638Z" fill="#F7C631"/>
<path d="M60.4192 56.9523L58.5576 58.0271L59.6324 59.8887L61.494 58.8139L60.4192 56.9523Z" fill="#FCE26A"/>
<path d="M63.3762 57.747L61.5146 58.8218L62.5894 60.6834L64.451 59.6086L63.3762 57.747Z" fill="#F7C631"/>
<path d="M55.4319 57.8453L53.5703 58.9201L54.6451 60.7817L56.5067 59.7069L55.4319 57.8453Z" fill="#FCE26A"/>
<path d="M58.3889 58.633L56.5273 59.7078L57.6021 61.5694L59.4637 60.4946L58.3889 58.633Z" fill="#F7C631"/>
<path d="M61.346 59.4275L59.4844 60.5023L60.5592 62.3639L62.4207 61.2891L61.346 59.4275Z" fill="#F7C631"/>
<path d="M64.2932 60.2127L62.4316 61.2875L63.5064 63.1491L65.368 62.0743L64.2932 60.2127Z" fill="#F7C631"/>
<path d="M53.4016 59.5259L51.54 60.6007L52.6148 62.4622L54.4764 61.3874L53.4016 59.5259Z" fill="#E3AA24"/>
<path d="M56.3547 60.3075L54.4932 61.3822L55.5679 63.2438L57.4295 62.169L56.3547 60.3075Z" fill="#E3AA24"/>
<path d="M59.3059 61.1055L57.4443 62.1803L58.5191 64.0419L60.3807 62.9671L59.3059 61.1055Z" fill="#FCE26A"/>
<path d="M62.2629 61.9002L60.4014 62.975L61.4762 64.8366L63.3377 63.7618L62.2629 61.9002Z" fill="#E3AA24"/>
<path d="M54.3186 61.9985L52.457 63.0733L53.5318 64.9349L55.3934 63.8601L54.3186 61.9985Z" fill="#CF8D1B"/>
<path d="M57.2756 62.7861L55.4141 63.8608L56.4888 65.7224L58.3504 64.6476L57.2756 62.7861Z" fill="#CF8D1B"/>
<path d="M60.2327 63.5807L58.3711 64.6555L59.4459 66.5171L61.3075 65.4423L60.2327 63.5807Z" fill="#CF8D1B"/>
<path d="M63.1799 64.3659L61.3184 65.4407L62.3931 67.3022L64.2547 66.2275L63.1799 64.3659Z" fill="#CF8D1B"/>
</g>
<path d="M60.5974 53.4357C60.2913 54.5696 59.2618 55.2792 59.2618 55.2792C59.2618 55.2792 58.7192 54.1453 59.0252 53.0114C59.3313 51.8775 60.3609 51.1679 60.3609 51.1679C60.3609 51.1679 60.9035 52.3018 60.5974 53.4357Z" fill="#5D9948"/>
<path d="M62.2323 52.9835C61.5923 51.8704 60.2914 51.4113 60.2914 51.4113C60.2914 51.4113 60.041 52.7609 60.681 53.8739C61.321 54.9869 62.6219 55.4461 62.6219 55.4461C62.6219 55.4461 62.8723 54.0965 62.2323 52.9835Z" fill="#5D9948"/>
<path d="M83.3897 57.9808L81.2597 57.41C79.2334 56.8671 77.1507 58.0696 76.6078 60.0958L75.0017 66.0896C74.4588 68.1158 75.6613 70.1986 77.6875 70.7415L79.8176 71.3122C81.8438 71.8552 83.9266 70.6527 84.4695 68.6265L86.0755 62.6327C86.6184 60.6064 85.416 58.5237 83.3897 57.9808Z" fill="#FA742C"/>
<mask id="mask7_4760_30501" style="mask-type:luminance" maskUnits="userSpaceOnUse" x="74" y="57" width="13" height="15">
<path d="M83.3897 57.9807L81.2597 57.41C79.2334 56.867 77.1507 58.0695 76.6078 60.0957L75.0017 66.0895C74.4588 68.1158 75.6613 70.1985 77.6875 70.7414L79.8176 71.3122C81.8438 71.8551 83.9266 70.6526 84.4695 68.6264L86.0755 62.6326C86.6184 60.6064 85.416 58.5236 83.3897 57.9807Z" fill="white"/>
</mask>
<g mask="url(#mask7_4760_30501)">
<path d="M79.7835 55.4678L77.9219 56.5426L78.9967 58.4042L80.8582 57.3294L79.7835 55.4678Z" fill="#DC501D"/>
<path d="M77.7493 57.1492L75.8877 58.224L76.9625 60.0856L78.8241 59.0108L77.7493 57.1492Z" fill="#D6691B"/>
<path d="M78.6829 59.6174L76.8213 60.6922L77.8961 62.5538L79.7577 61.479L78.6829 59.6174Z" fill="#E3AA24"/>
<path d="M76.6428 61.3024L74.7812 62.3772L75.856 64.2387L77.7176 63.164L76.6428 61.3024Z" fill="#F7C631"/>
<path d="M79.5999 62.0901L77.7383 63.1649L78.8131 65.0264L80.6746 63.9517L79.5999 62.0901Z" fill="#F7C631"/>
<path d="M77.5696 63.7776L75.708 64.8524L76.7828 66.7139L78.6444 65.6392L77.5696 63.7776Z" fill="#FCE26A"/>
<path d="M75.5295 65.4556L73.668 66.5304L74.7428 68.3919L76.6043 67.3172L75.5295 65.4556Z" fill="#E3AA24"/>
<path d="M78.4866 66.2433L76.625 67.3181L77.6998 69.1796L79.5614 68.1049L78.4866 66.2433Z" fill="#E3AA24"/>
<path d="M76.4563 67.9238L74.5947 68.9986L75.6695 70.8602L77.5311 69.7854L76.4563 67.9238Z" fill="#CF8D1B"/>
<path d="M79.4036 68.7158L77.542 69.7906L78.6168 71.6521L80.4783 70.5773L79.4036 68.7158Z" fill="#CF8D1B"/>
</g>
<path d="M79.1859 55.3627C80.3824 56.9488 82.4485 57.401 82.4485 57.401C82.4485 57.401 82.5806 55.2862 81.3841 53.7071C80.1876 52.121 78.1215 51.6688 78.1215 51.6688C78.1215 51.6688 77.9893 53.7836 79.1859 55.3627Z" fill="#5D9948"/>
<path d="M80.8552 59.2792C81.9682 58.6392 82.4274 57.3383 82.4274 57.3383C82.4274 57.3383 81.0778 57.0879 79.9647 57.7279C78.8517 58.3679 78.3926 59.6688 78.3926 59.6688C78.3926 59.6688 79.7421 59.9192 80.8552 59.2792Z" fill="#5D9948"/>
<path d="M80.4933 55.7174C81.7177 56.267 82.3299 57.5679 82.3299 57.5679C82.3299 57.5679 80.9525 57.9714 79.7281 57.4148C78.5038 56.8653 77.8916 55.5644 77.8916 55.5644C77.8916 55.5644 79.269 55.1609 80.4933 55.7174Z" fill="#5D9948"/>
<path d="M0.476649 58.224L-1.65343 57.6533C-3.67967 57.1104 -5.7624 58.3128 -6.30533 60.3391L-7.91136 66.3328C-8.45429 68.3591 -7.25183 70.4418 -5.22558 70.9847L-3.09551 71.5555C-1.06926 72.0984 1.01346 70.896 1.5564 68.8697L3.16242 62.8759C3.70536 60.8497 2.50289 58.767 0.476649 58.224Z" fill="#FA742C"/>
<mask id="mask8_4760_30501" style="mask-type:luminance" maskUnits="userSpaceOnUse" x="-9" y="57" width="13" height="15">
<path d="M0.476649 58.2241L-1.65343 57.6534C-3.67967 57.1104 -5.7624 58.3129 -6.30533 60.3391L-7.91136 66.3329C-8.45429 68.3592 -7.25183 70.4419 -5.22558 70.9848L-3.09551 71.5556C-1.06926 72.0985 1.01346 70.896 1.5564 68.8698L3.16242 62.876C3.70536 60.8498 2.50289 58.767 0.476649 58.2241Z" fill="white"/>
</mask>
<g mask="url(#mask8_4760_30501)">
<path d="M1.85377 54.8179L-0.0078125 55.8927L1.06697 57.7543L2.92855 56.6795L1.85377 54.8179Z" fill="#F7C631"/>
<path d="M4.8108 55.6056L2.94922 56.6804L4.024 58.542L5.88558 57.4672L4.8108 55.6056Z" fill="#F7C631"/>
<path d="M2.77076 57.2906L0.90918 58.3654L1.98396 60.2269L3.84554 59.1522L2.77076 57.2906Z" fill="#DC501D"/>
<path d="M3.69752 59.7588L1.83594 60.8336L2.91072 62.6952L4.7723 61.6204L3.69752 59.7588Z" fill="#D6691B"/>
<path d="M1.66431 61.4438L-0.197266 62.5186L0.877516 64.3801L2.73909 63.3053L1.66431 61.4438Z" fill="#E3AA24"/>
<path d="M4.62134 62.2315L2.75977 63.3063L3.83455 65.1678L5.69613 64.0931L4.62134 62.2315Z" fill="#E3AA24"/>
<path d="M2.59107 63.912L0.729492 64.9868L1.80428 66.8484L3.66585 65.7736L2.59107 63.912Z" fill="#F7C631"/>
<path d="M3.50806 66.3847L1.64648 67.4594L2.72127 69.321L4.58284 68.2462L3.50806 66.3847Z" fill="#F7C631"/>
<path d="M1.47779 68.0652L-0.383789 69.14L0.690995 71.0016L2.55257 69.9268L1.47779 68.0652Z" fill="#E3AA24"/>
<path d="M2.39478 70.5377L0.533203 71.6125L1.60798 73.474L3.46956 72.3993L2.39478 70.5377Z" fill="#CF8D1B"/>
</g>
<path d="M2.4963 53.4983C1.81456 56.0444 -0.508916 57.6305 -0.508916 57.6305C-0.508916 57.6305 -1.72631 55.0914 -1.04457 52.5453C-0.362829 49.9992 1.96065 48.4131 1.96065 48.4131C1.96065 48.4131 3.17804 50.9522 2.4963 53.4983Z" fill="#5D9948"/>
<path d="M3.33817 57.4983C1.5086 58.2705 -0.508789 57.6305 -0.508789 57.6305C-0.508789 57.6305 0.437298 55.7313 2.25991 54.9592C4.08947 54.187 6.10686 54.827 6.10686 54.827C6.10686 54.827 5.16078 56.7261 3.33817 57.4983Z" fill="#5D9948"/>
<path d="M3.85321 54.5906C2.18365 55.5575 0.152344 55.1749 0.152344 55.1749C0.152344 55.1749 0.841039 53.2271 2.5106 52.2671C4.18017 51.3001 6.21147 51.6827 6.21147 51.6827C6.21147 51.6827 5.52278 53.6306 3.85321 54.5906Z" fill="#5D9948"/>
<path d="M2.53831 56.747C1.14005 57.4636 -0.404297 57.2479 -0.404297 57.2479C-0.404297 57.2479 0.326138 55.8705 1.7244 55.154C3.12266 54.4375 4.66701 54.6531 4.66701 54.6531C4.66701 54.6531 3.93657 56.0305 2.53831 56.747Z" fill="#81B64C"/>
<path d="M1.98884 57.1366C0.653191 57.0044 -0.522461 57.8253 -0.522461 57.8253C-0.522461 57.8253 0.465365 58.8618 1.80797 58.994C3.15058 59.1261 4.31928 58.3053 4.31928 58.3053C4.31928 58.3053 3.33145 57.2687 1.98884 57.1366Z" fill="#5D9948"/>
<path d="M22.6046 64.1527L20.4745 63.5819C18.4483 63.039 16.3655 64.2415 15.8226 66.2677L14.2166 72.2615C13.6736 74.2877 14.8761 76.3705 16.9023 76.9134L19.0324 77.4842C21.0587 78.0271 23.1414 76.8246 23.6843 74.7984L25.2904 68.8046C25.8333 66.7784 24.6308 64.6956 22.6046 64.1527Z" fill="#FA742C"/>
<mask id="mask9_4760_30501" style="mask-type:luminance" maskUnits="userSpaceOnUse" x="14" y="63" width="12" height="15">
<path d="M22.6046 64.1526L20.4745 63.5819C18.4483 63.0389 16.3655 64.2414 15.8226 66.2676L14.2166 72.2614C13.6736 74.2877 14.8761 76.3704 16.9023 76.9133L19.0324 77.4841C21.0587 78.027 23.1414 76.8246 23.6843 74.7983L25.2904 68.8045C25.8333 66.7783 24.6308 64.6956 22.6046 64.1526Z" fill="white"/>
</mask>
<g mask="url(#mask9_4760_30501)">
<path d="M23.9817 60.7473L22.1201 61.822L23.1949 63.6836L25.0565 62.6088L23.9817 60.7473Z" fill="#F7C631"/>
<path d="M26.9387 61.535L25.0771 62.6097L26.1519 64.4713L28.0135 63.3965L26.9387 61.535Z" fill="#F7C631"/>
<path d="M18.9944 61.6331L17.1328 62.7079L18.2076 64.5695L20.0692 63.4947L18.9944 61.6331Z" fill="#DC501D"/>
<path d="M21.9514 62.4278L20.0898 63.5026L21.1646 65.3642L23.0262 64.2894L21.9514 62.4278Z" fill="#DC501D"/>
<path d="M24.9085 63.2155L23.0469 64.2903L24.1217 66.1519L25.9832 65.0771L24.9085 63.2155Z" fill="#DC501D"/>
<path d="M16.9641 63.3137L15.1025 64.3884L16.1773 66.25L18.0389 65.1752L16.9641 63.3137Z" fill="#D6691B"/>
<path d="M19.9211 64.1083L18.0596 65.1831L19.1344 67.0447L20.9959 65.9699L19.9211 64.1083Z" fill="#F7C631"/>
<path d="M22.8684 64.9004L21.0068 65.9752L22.0816 67.8368L23.9432 66.762L22.8684 64.9004Z" fill="#D6691B"/>
<path d="M25.8254 65.688L23.9639 66.7628L25.0386 68.6243L26.9002 67.5496L25.8254 65.688Z" fill="#D6691B"/>
<path d="M17.8879 65.7863L16.0264 66.8611L17.1011 68.7227L18.9627 67.6479L17.8879 65.7863Z" fill="#E3AA24"/>
<path d="M20.845 66.581L18.9834 67.6558L20.0582 69.5173L21.9198 68.4426L20.845 66.581Z" fill="#E3AA24"/>
<path d="M23.802 67.3685L21.9404 68.4433L23.0152 70.3049L24.8768 69.2301L23.802 67.3685Z" fill="#E3AA24"/>
<path d="M26.759 68.1632L24.8975 69.238L25.9722 71.0995L27.8338 70.0248L26.759 68.1632Z" fill="#E3AA24"/>
<path d="M15.8577 67.4669L13.9961 68.5416L15.0709 70.4032L16.9325 69.3284L15.8577 67.4669Z" fill="#F7C631"/>
<path d="M18.8147 68.2615L16.9531 69.3363L18.0279 71.1979L19.8895 70.1231L18.8147 68.2615Z" fill="#F7C631"/>
<path d="M21.7678 69.0501L19.9062 70.1249L20.981 71.9864L22.8426 70.9116L21.7678 69.0501Z" fill="#FCE26A"/>
<path d="M24.719 69.8412L22.8574 70.916L23.9322 72.7775L25.7938 71.7027L24.719 69.8412Z" fill="#F7C631"/>
<path d="M16.7747 69.9395L14.9131 71.0143L15.9879 72.8759L17.8494 71.8011L16.7747 69.9395Z" fill="#FCE26A"/>
<path d="M19.7317 70.7342L17.8701 71.809L18.9449 73.6705L20.8065 72.5958L19.7317 70.7342Z" fill="#F7C631"/>
<path d="M22.6887 71.5217L20.8271 72.5965L21.9019 74.4581L23.7635 73.3833L22.6887 71.5217Z" fill="#F7C631"/>
<path d="M25.6458 72.3164L23.7842 73.3912L24.859 75.2527L26.7205 74.178L25.6458 72.3164Z" fill="#F7C631"/>
<path d="M14.7444 71.62L12.8828 72.6948L13.9576 74.5564L15.8192 73.4816L14.7444 71.62Z" fill="#E3AA24"/>
<path d="M17.7014 72.4147L15.8398 73.4895L16.9146 75.3511L18.7762 74.2763L17.7014 72.4147Z" fill="#E3AA24"/>
<path d="M20.6545 73.2033L18.793 74.278L19.8678 76.1396L21.7293 75.0648L20.6545 73.2033Z" fill="#FCE26A"/>
<path d="M23.6057 73.9944L21.7441 75.0692L22.8189 76.9307L24.6805 75.856L23.6057 73.9944Z" fill="#E3AA24"/>
<path d="M15.6672 74.0891L13.8057 75.1639L14.8804 77.0255L16.742 75.9507L15.6672 74.0891Z" fill="#CF8D1B"/>
<path d="M18.6184 74.8872L16.7568 75.962L17.8316 77.8236L19.6932 76.7488L18.6184 74.8872Z" fill="#CF8D1B"/>
<path d="M21.5754 75.6749L19.7139 76.7497L20.7886 78.6113L22.6502 77.5365L21.5754 75.6749Z" fill="#CF8D1B"/>
<path d="M24.5325 76.4696L22.6709 77.5444L23.7457 79.4059L25.6073 78.3312L24.5325 76.4696Z" fill="#CF8D1B"/>
</g>
<path d="M24.6252 59.4253C23.9435 61.9714 21.62 63.5574 21.62 63.5574C21.62 63.5574 20.4026 61.0183 21.0843 58.4722C21.7661 55.9261 24.0896 54.34 24.0896 54.34C24.0896 54.34 25.3069 56.8792 24.6252 59.4253Z" fill="#5D9948"/>
<path d="M21.9402 65.5331C21.6341 66.6671 20.6045 67.3766 20.6045 67.3766C20.6045 67.3766 20.0619 66.2427 20.368 65.1088C20.6741 63.9749 21.7037 63.2653 21.7037 63.2653C21.7037 63.2653 22.2463 64.3992 21.9402 65.5331Z" fill="#5D9948"/>
<path d="M25.4739 63.4322C23.6443 64.2044 21.627 63.5644 21.627 63.5644C21.627 63.5644 22.573 61.6653 24.3956 60.8931C26.2183 60.1209 28.2426 60.7609 28.2426 60.7609C28.2426 60.7609 27.2965 62.66 25.4739 63.4322Z" fill="#5D9948"/>
<path d="M18.3919 61.5331C19.5884 63.1192 21.6545 63.5714 21.6545 63.5714C21.6545 63.5714 21.7867 61.4566 20.5902 59.8775C19.3937 58.2983 17.3276 57.8392 17.3276 57.8392C17.3276 57.8392 17.1954 59.954 18.3919 61.5331Z" fill="#5D9948"/>
<path d="M21.697 57.4009C22.664 59.0705 22.2814 61.1018 22.2814 61.1018C22.2814 61.1018 20.3335 60.4131 19.3735 58.7435C18.4135 57.074 18.7892 55.0427 18.7892 55.0427C18.7892 55.0427 20.737 55.7314 21.697 57.4009Z" fill="#5D9948"/>
<path d="M25.9821 60.5175C24.3126 61.4844 22.2812 61.1018 22.2812 61.1018C22.2812 61.1018 22.9699 59.154 24.6395 58.194C26.3091 57.234 28.3404 57.6096 28.3404 57.6096C28.3404 57.6096 27.6517 59.5575 25.9821 60.5175Z" fill="#5D9948"/>
<path d="M20.0691 65.4496C21.1821 64.8096 21.6412 63.5087 21.6412 63.5087C21.6412 63.5087 20.2917 63.2583 19.1786 63.8983C18.0656 64.5383 17.6064 65.8392 17.6064 65.8392C17.6064 65.8392 18.956 66.0896 20.0691 65.4496Z" fill="#5D9948"/>
<path d="M19.9645 64.8306C20.6184 64.4549 20.8828 63.6966 20.8828 63.6966C20.8828 63.6966 20.0898 63.5506 19.4358 63.9262C18.7819 64.3019 18.5176 65.0601 18.5176 65.0601C18.5176 65.0601 19.3106 65.2062 19.9645 64.8306Z" fill="#81B64C"/>
<path d="M23.5751 65.0809C22.9351 63.9678 21.6342 63.5087 21.6342 63.5087C21.6342 63.5087 21.3838 64.8583 22.0238 65.9713C22.6638 67.0844 23.9646 67.5435 23.9646 67.5435C23.9646 67.5435 24.2151 66.1939 23.5751 65.0809Z" fill="#5D9948"/>
<path d="M20.6599 59.0287C21.2095 60.5035 22.4895 61.387 22.4895 61.387C22.4895 61.387 22.886 59.8774 22.3434 58.4026C21.8008 56.9278 20.5138 56.0444 20.5138 56.0444C20.5138 56.0444 20.1173 57.5539 20.6599 59.0287Z" fill="#81B64C"/>
<path d="M24.6741 62.674C23.2758 63.3905 21.7314 63.1749 21.7314 63.1749C21.7314 63.1749 22.4619 61.7975 23.8601 61.0809C25.2584 60.3644 26.8028 60.5801 26.8028 60.5801C26.8028 60.5801 26.0723 61.9575 24.6741 62.674Z" fill="#81B64C"/>
<path d="M19.7072 61.8809C20.9316 62.4304 21.5437 63.7313 21.5437 63.7313C21.5437 63.7313 20.1663 64.1348 18.942 63.5783C17.7176 63.0217 17.1055 61.7278 17.1055 61.7278C17.1055 61.7278 18.4829 61.3243 19.7072 61.8809Z" fill="#5D9948"/>
<path d="M24.1246 63.0634C22.7889 62.9313 21.6133 63.7521 21.6133 63.7521C21.6133 63.7521 22.6011 64.7886 23.9437 64.9208C25.2863 65.053 26.455 64.2321 26.455 64.2321C26.455 64.2321 25.4672 63.1956 24.1246 63.0634Z" fill="#5D9948"/>
<path d="M44.7403 70.0831L42.6102 69.5124C40.584 68.9695 38.5013 70.1719 37.9583 72.1982L36.3523 78.1919C35.8094 80.2182 37.0118 82.3009 39.0381 82.8438L41.1682 83.4146C43.1944 83.9575 45.2771 82.7551 45.8201 80.7288L47.4261 74.735C47.969 72.7088 46.7666 70.6261 44.7403 70.0831Z" fill="#FA742C"/>
<mask id="mask10_4760_30501" style="mask-type:luminance" maskUnits="userSpaceOnUse" x="36" y="69" width="12" height="15">
<path d="M44.7403 70.083L42.6102 69.5123C40.584 68.9694 38.5013 70.1718 37.9583 72.1981L36.3523 78.1918C35.8094 80.2181 37.0118 82.3008 39.0381 82.8437L41.1682 83.4145C43.1944 83.9574 45.2771 82.755 45.8201 80.7287L47.4261 74.7349C47.969 72.7087 46.7666 70.626 44.7403 70.083Z" fill="white"/>
</mask>
<g mask="url(#mask10_4760_30501)">
<path d="M46.1184 66.679L44.2568 67.7538L45.3316 69.6154L47.1932 68.5406L46.1184 66.679Z" fill="#F7C631"/>
<path d="M49.0754 67.4667L47.2139 68.5415L48.2887 70.4031L50.1502 69.3283L49.0754 67.4667Z" fill="#F7C631"/>
<path d="M41.1311 67.5649L39.2695 68.6396L40.3443 70.5012L42.2059 69.4264L41.1311 67.5649Z" fill="#DC501D"/>
<path d="M44.0842 68.3534L42.2227 69.4282L43.2974 71.2898L45.159 70.215L44.0842 68.3534Z" fill="#DC501D"/>
<path d="M47.0354 69.1447L45.1738 70.2195L46.2486 72.0811L48.1102 71.0063L47.0354 69.1447Z" fill="#DC501D"/>
<path d="M39.0911 69.2429L37.2295 70.3176L38.3043 72.1792L40.1659 71.1044L39.0911 69.2429Z" fill="#D6691B"/>
<path d="M42.0481 70.0375L40.1865 71.1123L41.2613 72.9739L43.1229 71.8991L42.0481 70.0375Z" fill="#F7C631"/>
<path d="M45.0051 70.8322L43.1436 71.907L44.2183 73.7686L46.0799 72.6938L45.0051 70.8322Z" fill="#D6691B"/>
<path d="M47.9622 71.6197L46.1006 72.6945L47.1754 74.5561L49.0369 73.4813L47.9622 71.6197Z" fill="#D6691B"/>
<path d="M40.0247 71.7181L38.1631 72.7928L39.2379 74.6544L41.0994 73.5796L40.0247 71.7181Z" fill="#FCE26A"/>
<path d="M42.9778 72.5066L41.1162 73.5814L42.191 75.443L44.0526 74.3682L42.9778 72.5066Z" fill="#E3AA24"/>
<path d="M45.929 73.2977L44.0674 74.3725L45.1422 76.2341L47.0037 75.1593L45.929 73.2977Z" fill="#E3AA24"/>
<path d="M48.886 74.0924L47.0244 75.1672L48.0992 77.0287L49.9608 75.954L48.886 74.0924Z" fill="#E3AA24"/>
<path d="M37.9905 73.3925L36.1289 74.4673L37.2037 76.3288L39.0653 75.2541L37.9905 73.3925Z" fill="#F7C631"/>
<path d="M40.9417 74.1907L39.0801 75.2655L40.1549 77.1271L42.0164 76.0523L40.9417 74.1907Z" fill="#F7C631"/>
<path d="M43.8987 74.9852L42.0371 76.06L43.1119 77.9216L44.9735 76.8468L43.8987 74.9852Z" fill="#FCE26A"/>
<path d="M46.8557 75.7729L44.9941 76.8477L46.0689 78.7093L47.9305 77.6345L46.8557 75.7729Z" fill="#F7C631"/>
<path d="M38.9114 75.8713L37.0498 76.946L38.1246 78.8076L39.9862 77.7328L38.9114 75.8713Z" fill="#FCE26A"/>
<path d="M41.8645 76.6598L40.0029 77.7346L41.0777 79.5962L42.9393 78.5214L41.8645 76.6598Z" fill="#F7C631"/>
<path d="M44.8157 77.4509L42.9541 78.5257L44.0289 80.3873L45.8905 79.3125L44.8157 77.4509Z" fill="#F7C631"/>
<path d="M47.7727 78.2456L45.9111 79.3204L46.9859 81.1819L48.8475 80.1072L47.7727 78.2456Z" fill="#F7C631"/>
<path d="M36.8772 77.5457L35.0156 78.6205L36.0904 80.482L37.952 79.4073L36.8772 77.5457Z" fill="#E3AA24"/>
<path d="M39.8284 78.3437L37.9668 79.4185L39.0416 81.2801L40.9032 80.2053L39.8284 78.3437Z" fill="#E3AA24"/>
<path d="M42.7854 79.1384L40.9238 80.2132L41.9986 82.0748L43.8602 81L42.7854 79.1384Z" fill="#FCE26A"/>
<path d="M45.7424 79.9261L43.8809 81.0009L44.9556 82.8625L46.8172 81.7877L45.7424 79.9261Z" fill="#E3AA24"/>
</g>
<path d="M46.761 65.3591C46.0792 67.9052 43.7557 69.4913 43.7557 69.4913C43.7557 69.4913 42.5383 66.9521 43.2201 64.4061C43.9018 61.86 46.2253 60.2739 46.2253 60.2739C46.2253 60.2739 47.4427 62.813 46.761 65.3591Z" fill="#5D9948"/>
<path d="M44.075 71.46C43.7689 72.5939 42.7393 73.3035 42.7393 73.3035C42.7393 73.3035 42.1967 72.1696 42.5028 71.0357C42.8089 69.9018 43.8384 69.1922 43.8384 69.1922C43.8384 69.1922 44.381 70.3261 44.075 71.46Z" fill="#5D9948"/>
<path d="M47.6028 69.3591C45.7733 70.1313 43.7559 69.4913 43.7559 69.4913C43.7559 69.4913 44.7019 67.5921 46.5246 66.82C48.3541 66.0478 50.3715 66.6878 50.3715 66.6878C50.3715 66.6878 49.4254 68.5869 47.6028 69.3591Z" fill="#5D9948"/>
<path d="M40.5277 67.46C41.7242 69.0461 43.7903 69.4982 43.7903 69.4982C43.7903 69.4982 43.9224 67.3835 42.7259 65.8043C41.5294 64.2182 39.4633 63.7661 39.4633 63.7661C39.4633 63.7661 39.3311 65.8809 40.5277 67.46Z" fill="#5D9948"/>
<path d="M43.8253 63.3348C44.7922 65.0043 44.4096 67.0356 44.4096 67.0356C44.4096 67.0356 42.4618 66.3469 41.5018 64.6774C40.5348 63.0078 40.9174 60.9765 40.9174 60.9765C40.9174 60.9765 42.8653 61.6652 43.8253 63.3348Z" fill="#5D9948"/>
<path d="M48.1169 66.4443C46.4473 67.4113 44.416 67.0287 44.416 67.0287C44.416 67.0287 45.1047 65.0809 46.7743 64.1209C48.4438 63.1609 50.4751 63.5365 50.4751 63.5365C50.4751 63.5365 49.7865 65.4843 48.1169 66.4443Z" fill="#5D9948"/>
<path d="M42.197 71.3765C43.31 70.7365 43.7692 69.4356 43.7692 69.4356C43.7692 69.4356 42.4196 69.1852 41.3065 69.8252C40.1935 70.4652 39.7344 71.766 39.7344 71.766C39.7344 71.766 41.0839 72.0165 42.197 71.3765Z" fill="#5D9948"/>
<path d="M42.0925 70.7574C42.7464 70.3818 43.0107 69.6235 43.0107 69.6235C43.0107 69.6235 42.2177 69.4774 41.5638 69.8531C40.9099 70.2287 40.6455 70.987 40.6455 70.987C40.6455 70.987 41.4385 71.1331 42.0925 70.7574Z" fill="#81B64C"/>
<path d="M45.7098 71.0147C45.0698 69.9017 43.769 69.4425 43.769 69.4425C43.769 69.4425 43.5185 70.7921 44.1585 71.9051C44.7985 73.0182 46.0994 73.4773 46.0994 73.4773C46.0994 73.4773 46.3498 72.1277 45.7098 71.0147Z" fill="#5D9948"/>
<path d="M42.7888 64.9626C43.3384 66.4373 44.6184 67.3208 44.6184 67.3208C44.6184 67.3208 45.0149 65.8112 44.4723 64.3365C43.9297 62.8617 42.6427 61.9782 42.6427 61.9782C42.6427 61.9782 42.2462 63.4878 42.7888 64.9626Z" fill="#81B64C"/>
<path d="M46.802 68.6078C45.4037 69.3244 43.8594 69.1087 43.8594 69.1087C43.8594 69.1087 44.5898 67.7313 45.9881 67.0148C47.3863 66.2983 48.9307 66.5139 48.9307 66.5139C48.9307 66.5139 48.2002 67.8913 46.802 68.6078Z" fill="#81B64C"/>
<path d="M41.842 67.8147C43.0663 68.3643 43.6785 69.6651 43.6785 69.6651C43.6785 69.6651 42.3011 70.0686 41.0768 69.5121C39.8524 68.9625 39.2402 67.6617 39.2402 67.6617C39.2402 67.6617 40.6176 67.2582 41.842 67.8147Z" fill="#5D9948"/>
<path d="M46.2525 68.9974C44.9169 68.8652 43.7412 69.6861 43.7412 69.6861C43.7412 69.6861 44.729 70.7226 46.0716 70.8548C47.4073 70.987 48.5829 70.1661 48.5829 70.1661C48.5829 70.1661 47.5951 69.1296 46.2525 68.9974Z" fill="#5D9948"/>
<path d="M66.8683 76.0119L64.7382 75.4412C62.7119 74.8982 60.6292 76.1007 60.0863 78.1269L58.4802 84.1207C57.9373 86.147 59.1398 88.2297 61.166 88.7726L63.2961 89.3434C65.3223 89.8863 67.4051 88.6838 67.948 86.6576L69.554 80.6638C70.097 78.6376 68.8945 76.5548 66.8683 76.0119Z" fill="#FA742C"/>
<mask id="mask11_4760_30501" style="mask-type:luminance" maskUnits="userSpaceOnUse" x="58" y="75" width="12" height="15">
<path d="M66.8683 76.0119L64.7382 75.4411C62.7119 74.8982 60.6292 76.1007 60.0863 78.1269L58.4802 84.1207C57.9373 86.1469 59.1398 88.2297 61.166 88.7726L63.2961 89.3433C65.3223 89.8863 67.4051 88.6838 67.948 86.6576L69.554 80.6638C70.097 78.6375 68.8945 76.5548 66.8683 76.0119Z" fill="white"/>
</mask>
<g mask="url(#mask11_4760_30501)">
<path d="M68.2463 72.6017L66.3848 73.6765L67.4595 75.5381L69.3211 74.4633L68.2463 72.6017Z" fill="#F7C631"/>
<path d="M71.2034 73.3964L69.3418 74.4712L70.4166 76.3327L72.2782 75.258L71.2034 73.3964Z" fill="#F7C631"/>
<path d="M63.259 73.4946L61.3975 74.5693L62.4722 76.4309L64.3338 75.3561L63.259 73.4946Z" fill="#DC501D"/>
<path d="M66.2161 74.2892L64.3545 75.364L65.4293 77.2256L67.2908 76.1508L66.2161 74.2892Z" fill="#DC501D"/>
<path d="M69.1731 75.0769L67.3115 76.1517L68.3863 78.0133L70.2479 76.9385L69.1731 75.0769Z" fill="#DC501D"/>
<path d="M61.2288 75.1751L59.3672 76.2499L60.442 78.1114L62.3035 77.0367L61.2288 75.1751Z" fill="#D6691B"/>
<path d="M64.1858 75.9698L62.3242 77.0445L63.399 78.9061L65.2606 77.8313L64.1858 75.9698Z" fill="#F7C631"/>
<path d="M67.1331 76.7549L65.2715 77.8297L66.3463 79.6913L68.2078 78.6165L67.1331 76.7549Z" fill="#D6691B"/>
<path d="M70.0901 77.5494L68.2285 78.6242L69.3033 80.4858L71.1649 79.411L70.0901 77.5494Z" fill="#D6691B"/>
<path d="M62.1526 77.6477L60.291 78.7225L61.3658 80.5841L63.2274 79.5093L62.1526 77.6477Z" fill="#E3AA24"/>
<path d="M65.1096 78.4424L63.248 79.5172L64.3228 81.3788L66.1844 80.304L65.1096 78.4424Z" fill="#E3AA24"/>
<path d="M68.0667 79.2299L66.2051 80.3047L67.2799 82.1663L69.1414 81.0915L68.0667 79.2299Z" fill="#E3AA24"/>
<path d="M60.1223 79.3283L58.2607 80.4031L59.3355 82.2646L61.1971 81.1899L60.1223 79.3283Z" fill="#F7C631"/>
</g>
<path d="M68.8899 71.2862C68.2081 73.8323 65.8846 75.4184 65.8846 75.4184C65.8846 75.4184 64.6672 72.8792 65.349 70.3331C66.0307 67.7871 68.3542 66.201 68.3542 66.201C68.3542 66.201 69.5716 68.7401 68.8899 71.2862Z" fill="#5D9948"/>
<path d="M66.2039 77.3941C65.8978 78.528 64.8682 79.2375 64.8682 79.2375C64.8682 79.2375 64.3256 78.1036 64.6317 76.9697C64.9378 75.8358 65.9673 75.1262 65.9673 75.1262C65.9673 75.1262 66.5099 76.2602 66.2039 77.3941Z" fill="#5D9948"/>
<path d="M69.7317 75.2862C67.9022 76.0583 65.8848 75.4183 65.8848 75.4183C65.8848 75.4183 66.8309 73.5192 68.6535 72.747C70.4761 71.9749 72.5004 72.6149 72.5004 72.6149C72.5004 72.6149 71.5543 74.514 69.7317 75.2862Z" fill="#5D9948"/>
<path d="M62.6566 73.394C63.8531 74.9801 65.9192 75.4323 65.9192 75.4323C65.9192 75.4323 66.0513 73.3175 64.8548 71.7384C63.6583 70.1592 61.5922 69.7001 61.5922 69.7001C61.5922 69.7001 61.46 71.8149 62.6566 73.394Z" fill="#5D9948"/>
<path d="M65.9607 69.2618C66.9277 70.9314 66.545 72.9627 66.545 72.9627C66.545 72.9627 64.5972 72.274 63.6372 70.6044C62.6772 68.9349 63.0529 66.9036 63.0529 66.9036C63.0529 66.9036 65.0007 67.5923 65.9607 69.2618Z" fill="#5D9948"/>
<path d="M70.2458 72.3784C68.5762 73.3454 66.5449 72.9628 66.5449 72.9628C66.5449 72.9628 67.2336 71.015 68.9032 70.055C70.5727 69.088 72.6041 69.4706 72.6041 69.4706C72.6041 69.4706 71.9154 71.4184 70.2458 72.3784Z" fill="#5D9948"/>
<path d="M64.3327 77.3105C65.4458 76.6705 65.9049 75.3697 65.9049 75.3697C65.9049 75.3697 64.5553 75.1192 63.4423 75.7592C62.3292 76.3992 61.8701 77.7001 61.8701 77.7001C61.8701 77.7001 63.2197 77.9505 64.3327 77.3105Z" fill="#5D9948"/>
<path d="M64.2292 76.6845C64.8831 76.3089 65.1474 75.5506 65.1474 75.5506C65.1474 75.5506 64.3544 75.4045 63.7005 75.7802C63.0466 76.1558 62.7822 76.9141 62.7822 76.9141C62.7822 76.9141 63.5753 77.0602 64.2292 76.6845Z" fill="#81B64C"/>
<path d="M67.8387 76.9418C67.1987 75.8287 65.8979 75.3696 65.8979 75.3696C65.8979 75.3696 65.6474 76.7192 66.2874 77.8322C66.9274 78.9453 68.2283 79.4044 68.2283 79.4044C68.2283 79.4044 68.4787 78.0548 67.8387 76.9418Z" fill="#5D9948"/>
<path d="M64.9245 70.8896C65.4741 72.3644 66.7541 73.2479 66.7541 73.2479C66.7541 73.2479 67.1506 71.7383 66.608 70.2635C66.0654 68.7888 64.7785 67.9053 64.7785 67.9053C64.7785 67.9053 64.3819 69.4148 64.9245 70.8896Z" fill="#81B64C"/>
<path d="M68.9309 74.5349C67.5326 75.2514 65.9883 75.0358 65.9883 75.0358C65.9883 75.0358 66.7187 73.6584 68.117 72.9419C69.5152 72.2253 71.0596 72.441 71.0596 72.441C71.0596 72.441 70.3291 73.8184 68.9309 74.5349Z" fill="#81B64C"/>
<path d="M63.9709 73.7418C65.1952 74.2913 65.8074 75.5922 65.8074 75.5922C65.8074 75.5922 64.43 75.9957 63.2057 75.4392C61.9813 74.8826 61.3691 73.5887 61.3691 73.5887C61.3691 73.5887 62.7465 73.1852 63.9709 73.7418Z" fill="#5D9948"/>
<path d="M68.3814 74.9243C67.0458 74.7922 65.8701 75.613 65.8701 75.613C65.8701 75.613 66.8579 76.6496 68.2006 76.7817C69.5432 76.9139 70.7119 76.093 70.7119 76.093C70.7119 76.093 69.724 75.0565 68.3814 74.9243Z" fill="#5D9948"/>
<path d="M7.79025 77.373C7.10851 79.9191 4.78503 81.5051 4.78503 81.5051C4.78503 81.5051 3.56764 78.966 4.24938 76.4199C4.93112 73.8738 7.25459 72.2878 7.25459 72.2878C7.25459 72.2878 8.47199 74.8269 7.79025 77.373Z" fill="#5D9948"/>
<path d="M8.63211 81.3729C6.80255 82.1451 4.78516 81.5051 4.78516 81.5051C4.78516 81.5051 5.73124 79.606 7.55385 78.8338C9.38342 78.0616 11.4008 78.7016 11.4008 78.7016C11.4008 78.7016 10.4547 80.6008 8.63211 81.3729Z" fill="#5D9948"/>
<path d="M1.55793 79.4739C2.75446 81.0599 4.82054 81.5121 4.82054 81.5121C4.82054 81.5121 4.95272 79.3973 3.75619 77.8182C2.55967 76.2321 0.493586 75.7799 0.493586 75.7799C0.493586 75.7799 0.361412 77.8947 1.55793 79.4739Z" fill="#5D9948"/>
<path d="M4.8614 75.3486C5.82836 77.0182 5.44575 79.0495 5.44575 79.0495C5.44575 79.0495 3.49792 78.3608 2.53792 76.6912C1.57097 75.0217 1.95358 72.9904 1.95358 72.9904C1.95358 72.9904 3.9014 73.6791 4.8614 75.3486Z" fill="#5D9948"/>
<path d="M9.14716 78.4652C7.47759 79.4321 5.44629 79.0495 5.44629 79.0495C5.44629 79.0495 6.13498 77.1017 7.80455 76.1417C9.47411 75.1817 11.5054 75.5573 11.5054 75.5573C11.5054 75.5573 10.8167 77.5052 9.14716 78.4652Z" fill="#5D9948"/>
<path d="M3.82494 76.9764C4.3745 78.4512 5.6545 79.3347 5.6545 79.3347C5.6545 79.3347 6.05103 77.8251 5.50842 76.3503C4.96581 74.8755 3.67885 73.9921 3.67885 73.9921C3.67885 73.9921 3.28233 75.5016 3.82494 76.9764Z" fill="#81B64C"/>
<path d="M7.83226 80.6217C6.434 81.3382 4.88965 81.1226 4.88965 81.1226C4.88965 81.1226 5.62008 79.7452 7.01834 79.0286C8.41661 78.3121 9.96095 78.5278 9.96095 78.5278C9.96095 78.5278 9.23052 79.9052 7.83226 80.6217Z" fill="#81B64C"/>
<path d="M2.87225 79.8286C4.0966 80.3781 4.70877 81.679 4.70877 81.679C4.70877 81.679 3.33138 82.0825 2.10703 81.5259C0.882682 80.9694 0.270508 79.6755 0.270508 79.6755C0.270508 79.6755 1.6479 79.272 2.87225 79.8286Z" fill="#5D9948"/>
<path d="M29.926 83.3C29.2442 85.8461 26.9208 87.4321 26.9208 87.4321C26.9208 87.4321 25.7034 84.893 26.3851 82.3469C27.0669 79.8008 29.3903 78.2148 29.3903 78.2148C29.3903 78.2148 30.6077 80.7539 29.926 83.3Z" fill="#5D9948"/>
<path d="M26.9903 81.2756C27.9573 82.9452 27.5747 84.9765 27.5747 84.9765C27.5747 84.9765 25.6268 84.2878 24.6668 82.6182C23.6999 80.9487 24.0825 78.9174 24.0825 78.9174C24.0825 78.9174 26.0303 79.6061 26.9903 81.2756Z" fill="#5D9948"/>
<path d="M25.9538 82.9034C26.5034 84.3782 27.7834 85.2617 27.7834 85.2617C27.7834 85.2617 28.1799 83.7521 27.6373 82.2773C27.0947 80.8025 25.8078 79.9191 25.8078 79.9191C25.8078 79.9191 25.4112 81.4286 25.9538 82.9034Z" fill="#81B64C"/>
<path d="M38.0576 71.6061C38.9759 72.3783 39.7759 73.2478 40.5481 74.1452H40.1794C40.8889 73.2965 41.6333 72.4687 42.482 71.7244C41.9185 72.6983 41.2507 73.5887 40.555 74.4583L40.3741 74.6809C39.5394 73.707 38.7324 72.7191 38.0646 71.6061H38.0576Z" fill="#4D5759"/>
</g>
<path d="M57.0068 59.9608L57.2294 71.1329L57.2433 71.8912L56.4224 71.6825C55.9077 71.6825 55.4346 71.5642 54.9616 71.446C51.6642 70.5347 48.2137 69.7764 44.7842 70.4025C47.1077 69.3799 49.7998 69.1503 52.339 69.3451C53.8764 69.4912 55.4694 69.6999 56.812 70.5416L56.012 71.0912L56.9998 59.9608H57.0068Z" fill="#2E2C28"/>
<path d="M23.6087 59.9607L24.5965 71.0912L23.7965 70.5416C25.5983 69.4564 27.7757 69.3381 29.8209 69.2755C31.88 69.2964 33.967 69.5677 35.8244 70.4025C32.3948 69.7764 28.9444 70.5346 25.647 71.446C25.1739 71.5712 24.7078 71.6894 24.1861 71.6825L23.3652 71.8912L23.3791 71.1329L23.6018 59.9607H23.6087Z" fill="#2E2C28"/>
<path d="M26.8506 55.1399L28.3184 59.5225L28.5549 54.5764L26.8506 55.1399Z" fill="#484542"/>
<path d="M53.8215 55.1399L52.3537 59.5225L52.1172 54.5764L53.8215 55.1399Z" fill="#484542"/>
<path d="M56.0123 35.9677L55.9775 39.5016H56.3601L56.6871 35.9677H56.0123Z" fill="#585551"/>
<path d="M24.7148 35.9677L24.7496 39.5016H24.367L24.04 35.9677H24.7148Z" fill="#585551"/>
<path d="M44.2422 32.0651C46.4613 32.566 48.597 32.5869 50.7674 31.9399C48.9726 33.4356 46.1135 33.4147 44.2422 32.0651Z" fill="#E49E81"/>
<path d="M29.9678 32.0652C32.1869 32.5661 34.3226 32.587 36.493 31.94C34.6982 33.4357 31.8391 33.4148 29.9678 32.0652Z" fill="#E49E81"/>
</g>
</g>
</g>
</g>
</g>
<defs>
<radialGradient id="paint0_radial_4760_30501" cx="0" cy="0" r="1" gradientUnits="userSpaceOnUse" gradientTransform="translate(38.4721 24.113) rotate(180) scale(11.5552)">
<stop stop-color="#E56147"/>
<stop offset="0.29" stop-color="#EE8E70"/>
<stop offset="0.56" stop-color="#F5B08F"/>
<stop offset="0.78" stop-color="#F9C5A3"/>
<stop offset="0.93" stop-color="#FBCDAA"/>
</radialGradient>
<linearGradient id="paint1_linear_4760_30501" x1="40.3671" y1="36.8165" x2="40.3671" y2="32.2321" gradientUnits="userSpaceOnUse">
<stop stop-color="white"/>
<stop offset="1" stop-color="#FAC6A3"/>
</linearGradient>
<radialGradient id="paint2_radial_4760_30501" cx="0" cy="0" r="1" gradientUnits="userSpaceOnUse" gradientTransform="translate(48.577 24.1129) scale(11.5552)">
<stop stop-color="#E56147"/>
<stop offset="0.29" stop-color="#EE8E70"/>
<stop offset="0.56" stop-color="#F5B08F"/>
<stop offset="0.78" stop-color="#F9C5A3"/>
<stop offset="0.92" stop-color="#FBCDAA"/>
</radialGradient>
<radialGradient id="paint3_radial_4760_30501" cx="0" cy="0" r="1" gradientUnits="userSpaceOnUse" gradientTransform="translate(38.4734 24.113) rotate(180) scale(11.5552)">
<stop stop-color="#E56147"/>
<stop offset="0.29" stop-color="#EE8E70"/>
<stop offset="0.56" stop-color="#F5B08F"/>
<stop offset="0.78" stop-color="#F9C5A3"/>
<stop offset="0.93" stop-color="#FBCDAA"/>
</radialGradient>
<linearGradient id="paint4_linear_4760_30501" x1="35.0478" y1="30.4375" x2="32.3353" y2="30.4938" gradientUnits="userSpaceOnUse">
<stop offset="0.34" stop-color="#282F3B"/>
<stop offset="1" stop-color="#1B1F25"/>
</linearGradient>
<linearGradient id="paint5_linear_4760_30501" x1="45.68" y1="30.3972" x2="48.3925" y2="30.4535" gradientUnits="userSpaceOnUse">
<stop offset="0.34" stop-color="#282F3B"/>
<stop offset="1" stop-color="#1B1F25"/>
</linearGradient>
<clipPath id="clip0_4760_30501">
<path d="M0 3C0 1.34315 1.34315 0 3 0H77C78.6569 0 80 1.34315 80 3V77C80 78.6569 78.6569 80 77 80H3C1.34315 80 0 78.6569 0 77V3Z" fill="white"/>
</clipPath>
<clipPath id="clip1_4760_30501">
<rect width="80" height="80" fill="white"/>
</clipPath>
<clipPath id="clip2_4760_30501">
<rect width="80" height="80" fill="white" transform="translate(0.367188 0.413086)"/>
</clipPath>
</defs>
</svg>
