<svg width="20" height="20" viewBox="0 0 19.08 19.08" fill="none" xmlns="http://www.w3.org/2000/svg">
<path d="M8.60833 14.7167C12.0667 14.7167 14.7167 12.0583 14.7167 8.60833C14.7167 5.15 12.0583 2.5 8.60833 2.5C5.15 2.5 2.5 5.15833 2.5 8.60833C2.5 12.0667 5.15833 14.7167 8.60833 14.7167ZM8.60833 17.2167C3.78333 17.2167 0 13.425 0 8.60833C0 3.78333 3.79167 0 8.60833 0C13.4333 0 17.2167 3.79167 17.2167 8.60833C17.2167 13.4333 13.425 17.2167 8.60833 17.2167ZM17.5 19.0833C17.0583 19.0833 16.6417 18.9167 16 18.1917L13.0833 15.1333L15.1417 13.075L18.1417 15.9333C18.9167 16.6 19.0833 17.0417 19.0833 17.4917C19.0833 18.35 18.3583 19.075 17.5 19.075V19.0833ZM4.44167 8.60833C4.44167 6.3 6.33333 4.44167 8.60833 4.44167V8.60833H4.44167ZM8.60833 12.775V8.60833H12.775C12.775 10.8833 10.9167 12.775 8.60833 12.775Z" fill="white"/>
</svg>
