<svg width="20" height="20" viewBox="0 0 18.33 16.92" fill="none" xmlns="http://www.w3.org/2000/svg">
<path d="M7.14167 15.577L6.16667 16.6354C5.85833 16.9687 5.60833 16.9937 5.225 16.777L3.95 16.052C3.55833 15.827 3.475 15.577 3.59167 15.1604L4.03333 13.7687C4.14167 13.352 4.11667 13.0437 3.89167 12.6604L2.91667 10.9354C2.69167 10.5437 2.44167 10.377 2.025 10.2687L0.583333 9.93537C0.166667 9.82704 0 9.62704 0 9.18537V7.71037C0 7.2937 0.166667 7.10204 0.583333 6.98537L2.025 6.65204C2.44167 6.5437 2.69167 6.37704 2.91667 5.98537L3.89167 4.26037C4.11667 3.8687 4.14167 3.5687 4.03333 3.15204L3.59167 1.76037C3.48333 1.3437 3.56667 1.0937 3.95 0.868704L5.225 0.143704C5.61667 -0.0812957 5.86667 -0.0479627 6.16667 0.285371L7.14167 1.3437C7.45 1.67704 7.725 1.78537 8.16667 1.78537H10.1917C10.6083 1.78537 10.8833 1.67704 11.1917 1.3437L12.1667 0.285371C12.475 -0.0479627 12.725 -0.0729624 13.1083 0.143704L14.3833 0.868704C14.775 1.0937 14.8583 1.3437 14.7417 1.76037L14.3 3.15204C14.1917 3.5687 14.2167 3.87704 14.4417 4.26037L15.4167 5.98537C15.6417 6.37704 15.8917 6.5437 16.3083 6.65204L17.75 6.98537C18.1667 7.0937 18.3333 7.2937 18.3333 7.71037V9.18537C18.3333 9.62704 18.1667 9.82704 17.75 9.93537L16.3083 10.2687C15.8917 10.377 15.6417 10.5437 15.4167 10.9354L14.4417 12.6604C14.2167 13.052 14.1917 13.352 14.3 13.7687L14.7417 15.1604C14.85 15.577 14.7667 15.827 14.3833 16.052L13.1083 16.777C12.7167 17.002 12.4667 16.9687 12.1667 16.6354L11.1917 15.577C10.8833 15.2437 10.6083 15.1354 10.1917 15.1354H8.16667C7.725 15.1354 7.44167 15.2437 7.14167 15.577ZM9.19167 11.3854C10.775 11.3854 12.1083 10.077 12.1083 8.4437C12.1083 6.86037 10.775 5.55204 9.19167 5.55204C7.58333 5.55204 6.275 6.86037 6.275 8.4437C6.275 10.0854 7.58333 11.3854 9.19167 11.3854Z" fill="white"/>
</svg>
